<svg width="178" height="29" viewBox="0 0 178 29" fill="none" xmlns="http://www.w3.org/2000/svg">
<path d="M161.102 13.0118C161.802 13.0118 162.369 13.5368 162.356 14.1785C162.356 14.8202 161.803 15.3452 161.102 15.3452C160.414 15.3452 159.847 14.8202 159.847 14.1785C159.847 13.5368 160.401 13.0118 161.102 13.0118ZM165.591 13.0118C166.293 13.0118 166.847 13.5368 166.847 14.1785C166.847 14.8202 166.293 15.3452 165.591 15.3452C164.903 15.3452 164.337 14.8202 164.337 14.1785C164.337 13.5368 164.89 13.0118 165.591 13.0118ZM171.386 2.51184C172.743 2.51184 173.847 3.63884 173.847 5.03534V27.0118L171.267 24.6843L169.815 23.3123L168.278 21.854L168.915 24.1208H155.307C153.95 24.1208 152.847 22.9938 152.847 21.5973V5.03534C152.847 3.63884 153.95 2.51184 155.307 2.51184H171.385H171.386ZM166.755 18.5103C169.406 18.4252 170.427 16.6483 170.427 16.6483C170.427 12.7038 168.698 9.50601 168.698 9.50601C166.972 8.18417 165.327 8.22034 165.327 8.22034L165.159 8.41634C167.199 9.05334 168.146 9.97267 168.146 9.97267C167.032 9.34499 165.804 8.94523 164.534 8.79667C163.729 8.70568 162.915 8.71351 162.111 8.82001C162.039 8.82001 161.978 8.83284 161.907 8.84451C161.487 8.88184 160.466 9.04051 159.183 9.61684C158.74 9.82451 158.475 9.97267 158.475 9.97267C158.475 9.97267 159.471 9.00434 161.631 8.36734L161.51 8.22034C161.51 8.22034 159.867 8.18417 158.139 9.50717C158.139 9.50717 156.411 12.7038 156.411 16.6483C156.411 16.6483 157.419 18.424 160.071 18.5103C160.071 18.5103 160.514 17.9597 160.876 17.4942C159.351 17.0275 158.776 16.0475 158.776 16.0475C158.776 16.0475 158.895 16.1338 159.111 16.2563C159.122 16.268 159.134 16.2808 159.158 16.2925C159.195 16.3182 159.231 16.3298 159.267 16.3543C159.567 16.5258 159.867 16.66 160.142 16.7708C160.634 16.9668 161.222 17.1628 161.907 17.2982C162.933 17.4993 163.988 17.5032 165.015 17.3098C165.613 17.203 166.197 17.0264 166.755 16.7837C167.175 16.6238 167.642 16.3905 168.135 16.0603C168.135 16.0603 167.535 17.0648 165.962 17.5187C166.323 17.9842 166.756 18.5103 166.756 18.5103H166.755Z" fill="#606BBC"/>
<path d="M100.951 6.77717C100.06 7.17115 99.1159 7.42989 98.1487 7.54484C99.1681 6.93518 99.9311 5.97569 100.295 4.84517C99.3387 5.4145 98.2899 5.8135 97.1967 6.02934C96.4624 5.24368 95.4892 4.72263 94.4282 4.54719C93.3672 4.37174 92.278 4.55174 91.3299 5.0592C90.3818 5.56665 89.6279 6.37313 89.1854 7.35326C88.7429 8.33339 88.6366 9.43225 88.8831 10.479C86.943 10.3818 85.0451 9.87761 83.3126 8.99928C81.58 8.12094 80.0515 6.88806 78.8264 5.38067C78.3927 6.12553 78.1648 6.97227 78.1661 7.83417C78.1661 9.52584 79.0271 11.0203 80.3361 11.8953C79.5614 11.871 78.8038 11.6617 78.1264 11.2852V11.3458C78.1266 12.4725 78.5165 13.5644 79.2299 14.4364C79.9433 15.3084 80.9363 15.9069 82.0406 16.1303C81.3214 16.3252 80.5674 16.3539 79.8356 16.2143C80.1469 17.1841 80.7537 18.0322 81.5711 18.64C82.3884 19.2477 83.3754 19.5846 84.3937 19.6035C83.3816 20.3984 82.2228 20.986 80.9834 21.3327C79.7441 21.6794 78.4485 21.7785 77.1709 21.6242C79.4012 23.0585 81.9975 23.82 84.6492 23.8175C93.6244 23.8175 98.5326 16.3823 98.5326 9.93417C98.5326 9.72417 98.5267 9.51184 98.5174 9.30417C99.4727 8.6137 100.297 7.75836 100.952 6.77834L100.951 6.77717Z" fill="#606BBC"/>
<path d="M8.94108 6.01175C8.94077 6.63058 8.69464 7.22395 8.25684 7.66132C7.81904 8.09869 7.22542 8.34422 6.60658 8.34391C5.98774 8.3436 5.39437 8.09747 4.95701 7.65967C4.51964 7.22187 4.2741 6.62825 4.27441 6.00941C4.27472 5.39057 4.52085 4.7972 4.95866 4.35984C5.39646 3.92247 5.99008 3.67694 6.60891 3.67725C7.22775 3.67756 7.82112 3.92369 8.25849 4.36149C8.69586 4.79929 8.94139 5.39291 8.94108 6.01175ZM9.01108 10.0717H4.34441V24.6784H9.01108V10.0717ZM16.3844 10.0717H11.7411V24.6784H16.3377V17.0134C16.3377 12.7434 21.9028 12.3467 21.9028 17.0134V24.6784H26.5111V15.4267C26.5111 8.22841 18.2744 8.49675 16.3377 12.0317L16.3844 10.0717Z" fill="#606BBC"/>
</svg>
