<svg width="22" height="26" viewBox="0 0 22 26" fill="none" xmlns="http://www.w3.org/2000/svg">
<path d="M9.10201 11.0117C9.80201 11.0117 10.369 11.5367 10.3562 12.1784C10.3562 12.8201 9.80318 13.3451 9.10201 13.3451C8.41368 13.3451 7.84668 12.8201 7.84668 12.1784C7.84668 11.5367 8.40085 11.0117 9.10201 11.0117ZM13.5913 11.0117C14.2925 11.0117 14.8467 11.5367 14.8467 12.1784C14.8467 12.8201 14.2925 13.3451 13.5913 13.3451C12.903 13.3451 12.3372 12.8201 12.3372 12.1784C12.3372 11.5367 12.8902 11.0117 13.5913 11.0117ZM19.3862 0.511719C20.743 0.511719 21.8467 1.63872 21.8467 3.03522V25.0117L19.2672 22.6842L17.8147 21.3122L16.2782 19.8539L16.9152 22.1207H3.30718C1.95035 22.1207 0.84668 20.9937 0.84668 19.5972V3.03522C0.84668 1.63872 1.95035 0.511719 3.30718 0.511719H19.385H19.3862ZM14.7545 16.5102C17.4063 16.4251 18.4272 14.6482 18.4272 14.6482C18.4272 10.7037 16.6982 7.50589 16.6982 7.50589C14.9715 6.18405 13.3265 6.22022 13.3265 6.22022L13.1585 6.41622C15.199 7.05322 16.1463 7.97255 16.1463 7.97255C15.0323 7.34487 13.8044 6.94511 12.5343 6.79655C11.7287 6.70556 10.9149 6.71339 10.1112 6.81989C10.0388 6.81989 9.97818 6.83272 9.90701 6.84439C9.48701 6.88172 8.46618 7.04039 7.18285 7.61672C6.73951 7.82439 6.47468 7.97255 6.47468 7.97255C6.47468 7.97255 7.47101 7.00422 9.63051 6.36722L9.51035 6.22022C9.51035 6.22022 7.86651 6.18405 6.13868 7.50705C6.13868 7.50705 4.41085 10.7037 4.41085 14.6482C4.41085 14.6482 5.41885 16.4239 8.07068 16.5102C8.07068 16.5102 8.51401 15.9596 8.87568 15.4941C7.35085 15.0274 6.77568 14.0474 6.77568 14.0474C6.77568 14.0474 6.89468 14.1337 7.11051 14.2562C7.12218 14.2679 7.13385 14.2807 7.15835 14.2924C7.19451 14.3181 7.23068 14.3297 7.26685 14.3542C7.56668 14.5257 7.86651 14.6599 8.14185 14.7707C8.63418 14.9667 9.22218 15.1627 9.90701 15.2981C10.9329 15.4991 11.9877 15.5031 13.015 15.3097C13.6134 15.2029 14.1972 15.0263 14.7545 14.7836C15.1745 14.6237 15.6423 14.3904 16.1347 14.0602C16.1347 14.0602 15.535 15.0647 13.9623 15.5186C14.3228 15.9841 14.7557 16.5102 14.7557 16.5102H14.7545Z" fill="white"/>
</svg>
