<svg width="23" height="22" viewBox="0 0 23 22" fill="none" xmlns="http://www.w3.org/2000/svg">
<path d="M4.94108 3.01175C4.94077 3.63058 4.69464 4.22395 4.25684 4.66132C3.81904 5.09869 3.22542 5.34422 2.60658 5.34391C1.98774 5.3436 1.39437 5.09747 0.957007 4.65967C0.519641 4.22187 0.274105 3.62825 0.274414 3.00941C0.274724 2.39057 0.520853 1.7972 0.958657 1.35984C1.39646 0.922473 1.99008 0.676937 2.60891 0.677246C3.22775 0.677556 3.82112 0.923685 4.25849 1.36149C4.69586 1.79929 4.94139 2.39291 4.94108 3.01175ZM5.01108 7.07175H0.344414V21.6784H5.01108V7.07175ZM12.3844 7.07175H7.74108V21.6784H12.3377V14.0134C12.3377 9.74341 17.9028 9.34675 17.9028 14.0134V21.6784H22.5111V12.4267C22.5111 5.22841 14.2744 5.49675 12.3377 9.03175L12.3844 7.07175Z" fill="white"/>
</svg>
