<svg width="449" height="332" viewBox="0 0 449 332" fill="none" xmlns="http://www.w3.org/2000/svg">
<g filter="url(#filter0_d)">
<path fill-rule="evenodd" clip-rule="evenodd" d="M124.568 74.278C117.389 74.278 111.568 80.0982 111.568 87.2779V159.751C111.568 166.931 117.389 172.751 124.568 172.751H204.148C207.992 172.751 211.638 174.452 214.108 177.398C219.303 183.594 228.834 183.594 234.029 177.398C236.498 174.452 240.145 172.751 243.989 172.751H323.568C330.748 172.751 336.568 166.931 336.568 159.751V87.278C336.568 80.0983 330.748 74.278 323.568 74.278H124.568Z" fill="#606BBC"/>
<path d="M113.068 87.2779C113.068 80.9267 118.217 75.778 124.568 75.778V72.778C116.56 72.778 110.068 79.2698 110.068 87.2779H113.068ZM113.068 159.751V87.2779H110.068V159.751H113.068ZM124.568 171.251C118.217 171.251 113.068 166.102 113.068 159.751H110.068C110.068 167.759 116.56 174.251 124.568 174.251V171.251ZM204.148 171.251H124.568V174.251H204.148V171.251ZM323.568 171.251H243.989V174.251H323.568V171.251ZM335.068 159.751C335.068 166.102 329.92 171.251 323.568 171.251V174.251C331.576 174.251 338.068 167.759 338.068 159.751H335.068ZM335.068 87.278V159.751H338.068V87.278H335.068ZM323.568 75.778C329.92 75.778 335.068 80.9267 335.068 87.278H338.068C338.068 79.2698 331.576 72.778 323.568 72.778V75.778ZM124.568 75.778H323.568V72.778H124.568V75.778ZM235.178 178.362C237.363 175.756 240.589 174.251 243.989 174.251V171.251C239.701 171.251 235.634 173.149 232.879 176.434L235.178 178.362ZM212.959 178.362C218.753 185.273 229.384 185.273 235.178 178.362L232.879 176.434C228.284 181.915 219.853 181.915 215.258 176.434L212.959 178.362ZM204.148 174.251C207.548 174.251 210.774 175.756 212.959 178.362L215.258 176.434C212.503 173.149 208.435 171.251 204.148 171.251V174.251Z" fill="url(#paint0_linear)"/>
</g>
<defs>
<filter id="filter0_d" x="0.0683594" y="0.777954" width="448" height="330.767" filterUnits="userSpaceOnUse" color-interpolation-filters="sRGB">
<feFlood flood-opacity="0" result="BackgroundImageFix"/>
<feColorMatrix in="SourceAlpha" type="matrix" values="0 0 0 0 0 0 0 0 0 0 0 0 0 0 0 0 0 0 127 0" result="hardAlpha"/>
<feOffset dy="38"/>
<feGaussianBlur stdDeviation="55"/>
<feColorMatrix type="matrix" values="0 0 0 0 0.576471 0 0 0 0 0.219608 0 0 0 0 0.866667 0 0 0 0.41 0"/>
<feBlend mode="normal" in2="BackgroundImageFix" result="effect1_dropShadow"/>
<feBlend mode="normal" in="SourceGraphic" in2="effect1_dropShadow" result="shape"/>
</filter>
<linearGradient id="paint0_linear" x1="125.016" y1="95.5613" x2="334.324" y2="134.589" gradientUnits="userSpaceOnUse">
<stop stop-color="#99A5FF"/>
<stop offset="1" stop-color="#423D7A"/>
</linearGradient>
</defs>
</svg>
