<svg width="449" height="331" viewBox="0 0 449 331" fill="none" xmlns="http://www.w3.org/2000/svg">
<g filter="url(#filter0_d)">
<path fill-rule="evenodd" clip-rule="evenodd" d="M124.568 181.278C117.389 181.278 111.568 175.458 111.568 168.278V95.8049C111.568 88.6252 117.389 82.8049 124.568 82.8049H204.148C207.992 82.8049 211.638 81.1035 214.108 78.1579C219.303 71.9619 228.834 71.9619 234.029 78.1579C236.498 81.1035 240.145 82.8049 243.989 82.8049H323.568C330.748 82.8049 336.568 88.6252 336.568 95.8049V168.278C336.568 175.458 330.748 181.278 323.568 181.278H124.568Z" fill="#606BBC"/>
<path d="M113.068 168.278C113.068 174.629 118.217 179.778 124.568 179.778V182.778C116.56 182.778 110.068 176.286 110.068 168.278H113.068ZM113.068 95.8049V168.278H110.068V95.8049H113.068ZM124.568 84.3049C118.217 84.3049 113.068 89.4536 113.068 95.8049H110.068C110.068 87.7968 116.56 81.3049 124.568 81.3049V84.3049ZM204.148 84.3049H124.568V81.3049H204.148V84.3049ZM323.568 84.3049H243.989V81.3049H323.568V84.3049ZM335.068 95.8049C335.068 89.4536 329.92 84.3049 323.568 84.3049V81.3049C331.576 81.3049 338.068 87.7968 338.068 95.8049H335.068ZM335.068 168.278V95.8049H338.068V168.278H335.068ZM323.568 179.778C329.92 179.778 335.068 174.629 335.068 168.278H338.068C338.068 176.286 331.576 182.778 323.568 182.778V179.778ZM124.568 179.778H323.568V182.778H124.568V179.778ZM235.178 77.1942C237.363 79.7998 240.589 81.3049 243.989 81.3049V84.3049C239.701 84.3049 235.634 82.4071 232.879 79.1216L235.178 77.1942ZM212.959 77.1942C218.753 70.2831 229.384 70.2831 235.178 77.1942L232.879 79.1216C228.284 73.6406 219.853 73.6406 215.258 79.1216L212.959 77.1942ZM204.148 81.3049C207.548 81.3049 210.774 79.7998 212.959 77.1942L215.258 79.1216C212.503 82.4071 208.435 84.3049 204.148 84.3049V81.3049Z" fill="url(#paint0_linear)"/>
</g>
<defs>
<filter id="filter0_d" x="0.0683594" y="0.0108643" width="448" height="330.767" filterUnits="userSpaceOnUse" color-interpolation-filters="sRGB">
<feFlood flood-opacity="0" result="BackgroundImageFix"/>
<feColorMatrix in="SourceAlpha" type="matrix" values="0 0 0 0 0 0 0 0 0 0 0 0 0 0 0 0 0 0 127 0" result="hardAlpha"/>
<feOffset dy="38"/>
<feGaussianBlur stdDeviation="55"/>
<feColorMatrix type="matrix" values="0 0 0 0 0.576471 0 0 0 0 0.219608 0 0 0 0 0.866667 0 0 0 0.41 0"/>
<feBlend mode="normal" in2="BackgroundImageFix" result="effect1_dropShadow"/>
<feBlend mode="normal" in="SourceGraphic" in2="effect1_dropShadow" result="shape"/>
</filter>
<linearGradient id="paint0_linear" x1="125.016" y1="159.995" x2="334.324" y2="120.967" gradientUnits="userSpaceOnUse">
<stop stop-color="#99A5FF"/>
<stop offset="1" stop-color="#423D7A"/>
</linearGradient>
</defs>
</svg>
