<svg width="430" height="572" viewBox="0 0 430 572" fill="none" xmlns="http://www.w3.org/2000/svg">
<path d="M206.39 452.223C203.505 462.429 207.435 502.23 206.39 514.509C206.257 516.039 206.161 517.829 206.082 519.793C206.082 520.058 206.082 520.329 206.052 520.6C205.551 534.458 205.944 556.045 203.239 558.738C201.193 560.781 192.487 561.751 185.931 561.907C185.008 561.907 184.12 561.944 183.311 561.944C181.731 562 180.148 561.891 178.591 561.618C175.971 560.835 186.722 552.195 187.507 549.321C187.827 548.116 186.161 538.711 183.945 526.463L183.692 525.065C180.528 507.659 176.387 485.149 175.18 472.382C173.864 458.417 167.936 434.052 163.975 416.67C163.335 413.874 162.768 411.247 162.255 408.891C160.909 402.541 160.142 398.047 160.498 396.745C161.313 393.805 166.221 384.093 172.572 376.363C176.417 371.723 180.794 367.819 185.122 366.572C188.473 365.608 192.717 364.355 197.063 363.072L197.353 362.987C207.887 359.86 218.874 356.541 218.874 356.541C218.778 357.746 209.252 442.089 206.39 452.223Z" fill="url(#paint0_linear)"/>
<path d="M165.219 379.465C165.219 379.465 179.707 482.059 182.176 496.452C184.645 510.846 186.456 529.692 186.456 529.692" stroke="#567AC3" stroke-miterlimit="10"/>
<path d="M136.369 462.965C135.584 470.557 138.995 502.224 141.881 524.209C141.923 524.529 141.965 524.848 142.002 525.161C142.08 525.764 142.146 526.33 142.219 526.914C144.634 547.67 143.426 564.564 142.666 565.818C142.062 566.854 131.081 568.872 123.547 569.661H123.408L122.883 569.716H122.792C121.126 569.878 119.665 569.975 118.567 569.975C112.53 569.975 109.65 568.667 111.745 566.053C113.84 563.438 120.378 560.293 119.864 556.889C119.677 555.684 117.293 545.441 114.202 532.078C114.069 531.517 113.942 530.945 113.803 530.373C108.231 506.273 100.643 473.178 99.2607 463.459C97.0633 448.017 96.0129 388.605 111.485 364.264L164.006 372.802L179.846 375.374V375.429C178.573 377.79 137.148 455.476 136.369 462.965Z" fill="url(#paint1_linear)"/>
<path opacity="0.16" d="M127.283 211.616C127.3 222.589 124.254 233.35 118.488 242.693H118.433C116.713 242.693 115.004 242.62 113.32 242.464C104.783 241.704 96.5219 239.06 89.1344 234.723C81.7469 230.386 75.4176 224.464 70.6044 217.386C65.7912 210.308 62.6145 202.251 61.304 193.798C59.9936 185.344 60.5821 176.706 63.0271 168.507C63.2988 167.58 63.6308 166.664 63.9206 165.76C65.5513 161.158 67.7647 156.782 70.5068 152.74L70.8146 152.294C86.0517 153.074 100.407 159.664 110.915 170.704C121.424 181.743 127.283 196.389 127.283 211.616Z" fill="#8DAAEE"/>
<path d="M125.882 370.567C125.882 370.567 85.5621 426.599 121.717 541.206" stroke="#567AC3" stroke-miterlimit="10"/>
<path d="M176.236 185.01C176.236 187.01 176.134 188.98 175.94 190.926C175.795 192.324 175.594 193.706 175.337 195.071C172.958 208.404 165.958 220.477 155.561 229.178C145.164 237.88 132.032 242.655 118.464 242.669C123.859 233.888 126.874 223.858 127.213 213.564C127.551 203.269 125.202 193.064 120.395 183.949C115.588 174.834 108.489 167.123 99.7946 161.574C91.1003 156.024 81.1094 152.826 70.8027 152.294C71.7928 150.854 72.8553 149.462 73.9721 148.125C80.1737 140.683 88.1515 134.919 97.1709 131.361C106.19 127.804 115.962 126.569 125.585 127.769C135.208 128.969 144.374 132.566 152.24 138.229C160.105 143.892 166.416 151.439 170.592 160.175C171.008 161.042 171.401 161.928 171.769 162.82C174.718 169.847 176.237 177.391 176.236 185.01Z" fill="url(#paint2_linear)"/>
<path d="M87.73 197.313C87.73 197.313 85.919 217.725 88.1526 219.491C90.3862 221.256 91.8049 218.105 91.4547 213.008L87.73 197.313Z" fill="#E59876"/>
<path d="M219.683 354.516C219.485 355.21 219.226 355.886 218.91 356.535C217.189 360.071 212.076 366.777 196.163 371.723C189.119 373.827 181.9 375.299 174.593 376.122C173.923 376.206 173.259 376.284 172.595 376.351C147.844 379.098 128.526 375.375 117.515 371.657C111.37 369.585 107.814 367.506 107.331 366.56C105.985 363.927 108.49 354.914 108.599 354.51C108.599 354.661 109.076 356.679 133.018 360.378H133.084C134.672 360.625 136.356 360.872 138.149 361.138L138.614 361.198C139.29 361.294 139.978 361.373 140.678 361.433H140.751C157.986 363.029 180.993 356.751 197.709 351.004C202.635 349.311 207.011 347.666 210.531 346.28C213 345.316 215.046 344.473 216.568 343.834C218.427 343.051 219.508 342.569 219.586 342.526C219.586 342.526 220.383 346.057 219.646 349.003C218.91 351.95 220.419 351.986 219.683 354.516Z" fill="url(#paint3_linear)"/>
<path d="M219.236 345.611C218.143 348.28 211.992 352.841 197.449 357.661C189.54 360.225 181.492 362.341 173.344 363.999C161.418 366.543 149.163 367.178 137.038 365.879C123.492 364.379 114.165 360.716 111.46 358.764C108.901 356.914 108.442 355.456 108.599 354.51C108.664 354.037 108.887 353.6 109.233 353.269H109.287C109.842 353.456 115.088 354.992 146.075 357.432C164.065 358.848 183.631 353.215 197.763 347.744C204.599 345.148 211.267 342.13 217.727 338.707C218.256 339.271 218.692 339.916 219.019 340.616C219.318 341.22 219.522 341.866 219.622 342.532C219.784 343.575 219.65 344.641 219.236 345.611Z" fill="#4669A5"/>
<path d="M118.276 214.978C114.992 216.346 97.0382 226.492 97.0382 226.492C87.9829 208.17 87.1257 194.077 87.1438 189.275C87.1438 188.113 87.2042 187.468 87.2042 187.468L89.957 185.66L98.2154 180.238C98.2154 180.238 117.883 191.842 122.079 199.012C126.275 206.181 121.584 213.604 118.276 214.978Z" fill="#F9DCBD"/>
<path opacity="0.37" d="M108.46 204.452C108.46 204.452 111.979 199.313 115.831 199.958C119.682 200.602 120.135 205.284 119.423 209.887C118.71 214.49 111.756 215.87 104.971 219.593C98.1852 223.316 95.873 227.829 95.873 227.829C95.873 227.829 121.228 218.605 121.717 214.574C122.206 210.544 124.777 199.729 120.63 197.879C116.483 196.029 111.484 195.246 109.553 197.939C107.621 200.632 108.46 204.452 108.46 204.452Z" fill="#E59876"/>
<path opacity="0.37" d="M109.233 202.084C107.229 203.675 107.132 210.935 107.132 210.935C106.33 208.81 105.764 206.604 105.442 204.356C104.929 200.693 102.019 193.511 97.8056 192.571C94.7509 191.896 89.6981 190.161 87.1445 189.257C87.1445 188.094 87.2049 187.45 87.2049 187.45L89.9577 185.642C95.1856 184.594 103.196 184.955 103.196 184.955C103.196 184.955 111.238 200.518 109.233 202.084Z" fill="#E59876"/>
<path d="M210.537 346.322C206.403 348.582 202.107 350.535 197.685 352.166C193.459 353.793 188.34 355.564 182.164 357.48C174.862 359.744 167.326 361.175 159.701 361.746C153.391 362.215 147.052 362.124 140.758 361.475H140.685C139.989 361.403 139.301 361.324 138.621 361.24L138.216 361.186H138.156C136.405 360.961 134.717 360.708 133.091 360.427H133.024C119.104 358.017 110.048 353.709 109.294 353.341H109.239L106.547 302.304C106.547 302.304 106.927 248.784 112.397 228.896C113.375 225.347 114.509 222.871 115.838 221.961C124.603 215.936 198.542 221.961 206.39 236.354C211.884 246.404 215.234 292.344 216.755 319.162C216.991 323.301 217.178 326.994 217.359 330.006C217.54 333.724 217.661 336.453 217.715 337.839C217.715 338.441 217.758 338.803 217.758 338.803C217.83 338.911 219.08 341.484 210.537 346.322Z" fill="#8DAAEE"/>
<path d="M123.202 210.2C123.202 210.803 123.202 211.405 123.172 211.978L123.136 212.954L118.276 214.978C121.029 212.49 123.106 199.403 116.574 198.62C116.1 198.566 115.622 198.566 115.149 198.62C109.631 199.223 107.398 207.133 107.398 207.133L103.329 190.125C103.329 190.125 98.4993 191.3 87.2044 187.504C75.9095 183.708 71.074 172.056 71.4784 164.2C71.8829 156.343 78.8253 155.698 80.5337 157.789C82.2421 159.88 85.7797 164.2 85.7797 164.2C85.4329 162.555 85.3737 160.863 85.6046 159.199C85.7193 158.084 85.8884 157.054 86.0332 156.295C98.6734 161.123 109.222 170.214 115.849 181.991C116.497 183.132 117.101 184.299 117.66 185.492C121.074 192.673 122.955 200.484 123.184 208.429C123.196 209.019 123.202 209.61 123.202 210.2Z" fill="url(#paint4_linear)"/>
<path d="M125.545 192.589C127.031 197.72 127.843 203.023 127.96 208.362C127.96 208.82 127.96 209.278 127.96 209.742C127.96 210.206 127.96 210.55 127.96 210.947" stroke="#231F20" stroke-miterlimit="10"/>
<path d="M127.953 209.742C127.953 211.122 123.172 211.977 123.172 211.977C124.132 203.747 119.357 189.474 119.357 189.474C108.641 163.711 86.0151 156.295 86.0151 156.295C81.0403 154.397 75.8245 153.2 70.5186 152.74C71.5997 151.145 72.7602 149.604 73.9958 148.125C84.0113 149.475 93.5476 153.235 101.782 159.083C110.017 164.93 116.703 172.689 121.264 181.69C121.836 182.811 122.371 183.951 122.87 185.112C123.926 187.543 124.82 190.04 125.544 192.589C127.168 197.65 127.935 208.362 127.953 209.742Z" fill="#6A8BCE"/>
<path d="M127.935 210.953C127.935 211.279 127.935 211.604 127.935 211.923C127.573 222.831 124.321 233.447 118.511 242.693H118.457C116.736 242.693 115.028 242.62 113.344 242.464C119.278 233.713 122.675 223.497 123.16 212.941L127.935 210.953Z" stroke="#231F20" stroke-miterlimit="10"/>
<path opacity="0.4" d="M115.831 181.991C113.079 178.503 107.911 170.773 104.452 167.983C102.834 164.446 101.53 158.373 99.2362 156.295C93.1692 150.806 92.5957 145.203 92.5957 145.203L108.032 150.625L115.831 181.991Z" fill="#33558C"/>
<path d="M171.793 162.808C158.371 175.371 141.196 183.2 122.894 185.1C121.168 185.281 119.427 185.407 117.673 185.48C117.304 184.708 116.924 183.943 116.52 183.196C116.308 182.786 116.085 182.383 115.855 181.991C117.667 181.949 119.478 181.853 121.289 181.69C139.657 180.101 156.995 172.538 170.64 160.163C170.773 160.434 170.899 160.711 171.02 160.988C171.274 161.585 171.539 162.199 171.793 162.808Z" fill="#C2D3F7"/>
<path d="M175.916 190.926C175.771 192.324 175.57 193.706 175.313 195.071C161.594 205.401 145.035 211.288 127.863 211.941C126.752 211.984 125.635 212.008 124.512 212.008H123.124C123.124 211.405 123.154 210.803 123.154 210.23C123.154 209.658 123.154 209.025 123.124 208.459C123.522 208.459 123.921 208.459 124.331 208.459C125.539 208.459 126.728 208.433 127.899 208.381C145.332 207.678 162.114 201.578 175.916 190.926Z" fill="#C2D3F7"/>
<path d="M109.233 209.742C109.233 209.742 110.936 204.374 113.948 202.675C116.961 200.976 118.669 203.332 118.409 206.537C118.409 206.537 117.625 203.591 115.331 204.506C113.037 205.422 109.233 209.742 109.233 209.742Z" fill="#E59876"/>
<path d="M91.3095 191.053C91.1896 191.266 91.1219 191.505 91.1117 191.75C91.1015 191.995 91.1492 192.238 91.2509 192.461C91.3526 192.684 91.5054 192.88 91.697 193.033C91.8886 193.186 92.1136 193.292 92.3538 193.342C94.1948 193.726 95.9423 194.467 97.4973 195.523C100.323 197.566 100.703 197.686 100.329 195.65C99.9543 193.613 97.5455 191.366 95.2032 190.583C93.525 190.035 92.0037 189.884 91.3095 191.053Z" fill="url(#paint5_linear)"/>
<path d="M93.226 197.574C93.6129 196.23 93.42 194.996 92.7952 194.817C92.1704 194.638 91.3502 195.581 90.9633 196.924C90.5764 198.267 90.7692 199.502 91.3941 199.681C92.0189 199.86 92.8391 198.917 93.226 197.574Z" fill="#01010B"/>
<path d="M103.758 218.527C103.376 219.111 102.825 219.566 102.178 219.832C101.532 220.097 100.82 220.161 100.136 220.015C98.4334 219.756 96.399 218.551 94.4189 216.068C94.4189 216.068 99.508 212.634 100.703 209.887C101.281 210.709 101.817 211.559 102.309 212.435C103.474 214.454 104.621 217.147 103.758 218.527Z" fill="#7A2B18"/>
<path d="M103.758 218.527C103.376 219.111 102.825 219.566 102.178 219.832C101.532 220.097 100.819 220.161 100.136 220.015C99.8017 218.672 99.8266 217.265 100.208 215.935C100.589 214.605 101.314 213.398 102.309 212.435C103.474 214.454 104.621 217.147 103.758 218.527Z" fill="#EF7771"/>
<path opacity="0.65" d="M159.701 361.746C130.682 363.933 109.233 353.311 109.233 353.311L106.541 302.274C106.541 302.274 106.921 248.754 112.391 228.865C117.558 236.21 132.451 259.376 129.553 278.758C126.088 301.924 131.419 349.696 159.701 361.746Z" fill="#4669A5"/>
<path d="M107.7 324.03C107.7 324.03 120.619 304.678 124.404 276.71L121.386 259.912L107.271 315.709L107.7 324.03Z" fill="#4669A5"/>
<path d="M136.368 214.978C96.6823 234.469 72.8006 267.329 63.1356 282.668C60.6726 286.579 59.1392 289.35 58.4993 290.465C55.3541 295.959 51.6837 294.652 50.8929 290.465C50.102 286.277 52.9937 281.301 71.4604 251.989C82.2724 234.824 99.2298 223.907 111.473 217.81C116.274 215.363 121.254 213.284 126.371 211.592C133.145 207.061 136.368 214.978 136.368 214.978Z" fill="url(#paint6_linear)"/>
<path opacity="0.65" d="M217.685 337.767C209.391 343.316 179.285 354.637 163.462 354.865C145.732 355.119 128.769 345.177 128.612 339.454C128.455 333.73 118.868 274.45 118.868 274.45C122.72 213.243 201.851 301.84 216.756 319.113C217.275 328.344 217.571 335.308 217.685 337.767Z" fill="#4669A5"/>
<path opacity="0.29" d="M136.369 214.978C96.6825 234.469 72.8007 267.329 63.1357 282.668C69.3235 271.54 87.8868 239.042 97.9804 230.968C110.199 221.178 111.461 217.828 111.461 217.828C116.262 215.381 121.242 213.302 126.36 211.61C133.145 207.061 136.369 214.978 136.369 214.978Z" fill="#6A8BCE"/>
<path d="M60.9146 298.791L59.2725 299.689L48.7201 305.292C44.3917 298.225 46.1666 297.243 46.559 290.573C46.8004 286.434 49.1005 284.548 50.7847 283.741C51.3747 283.447 52.0056 283.244 52.6562 283.138C52.6139 283.235 52.0525 284.59 52.8252 287.434C53.616 290.392 54.9924 289.989 58.4636 290.513C61.9348 291.037 60.9146 298.791 60.9146 298.791Z" fill="#C2D3F7"/>
<path opacity="0.65" d="M59.2725 299.689L48.7201 305.292C44.3917 298.225 46.1666 297.243 46.559 290.573C46.8004 286.434 49.1005 284.548 50.7847 283.741C50.9115 285.856 51.4186 290.519 53.4409 291.308C56.073 292.338 59.7072 290.374 60.0815 294.791C60.2679 296.467 59.988 298.161 59.2725 299.689Z" fill="#4669A5"/>
<path d="M74.6845 333.73C74.6845 333.73 73.9419 341.46 67.4403 338.911C67.229 338.833 67.0116 338.737 66.7883 338.634C59.7071 335.302 51.8411 318.613 49.0883 309.389C48.056 305.943 48.545 303.364 49.7523 301.557C51.7626 298.49 55.7891 297.411 58.1375 297.411C61.8743 297.411 68.9555 306.449 68.9555 306.449L74.6845 333.73Z" fill="#8DAAEE"/>
<path d="M153.296 345.653C145.128 348.244 113.857 349.154 96.302 347.16C92.2453 346.696 88.925 346.081 86.788 345.298C86.3438 345.127 85.9121 344.926 85.4961 344.695C83.0814 343.37 82.8459 342.038 83.7877 340.785C84.9166 339.279 87.7901 337.881 90.8025 336.761C93.7521 335.693 96.7615 334.798 99.8155 334.079C99.8155 334.079 101.771 334.381 105.055 334.682C111.863 335.324 118.709 335.473 125.538 335.128C130.996 334.865 136.423 334.16 141.765 333.019L153.296 345.653Z" fill="url(#paint7_linear)"/>
<path d="M98.8739 335.887C89.8186 352.154 70.3559 344.322 66.8122 338.634C65.5385 336.592 65.466 331.856 65.8826 326.632C66.541 319.851 67.5749 313.111 68.9795 306.443C68.9795 306.443 71.3399 301.539 78.0347 267.775C84.7296 234.011 110.682 226.492 110.682 226.492C112.051 226.757 113.345 227.318 114.473 228.136C119.598 231.836 121.053 240.789 121.717 253.248C122.472 268.359 107.917 319.571 98.8739 335.887Z" fill="#8DAAEE"/>
<path opacity="0.65" d="M69.5042 330.525L67.4637 338.911C67.2524 338.833 67.0351 338.737 66.8117 338.634C59.7305 335.302 51.8645 318.613 49.1117 309.389C48.0794 305.943 48.5684 303.364 49.7757 301.557C51.6894 309.708 62.6825 324.891 62.6825 324.891L69.5042 330.525Z" fill="#4669A5"/>
<path opacity="0.65" d="M98.8739 335.887C89.8186 352.154 70.3559 344.322 66.8122 338.634C65.5385 336.592 65.466 331.856 65.8826 326.633C75.5415 331.151 87.5427 330.127 95.8736 305.268C105.158 277.553 112.39 228.847 112.39 228.847C112.994 228.41 113.715 228.163 114.461 228.136C119.586 231.836 121.041 240.789 121.705 253.249C122.472 268.359 107.917 319.571 98.8739 335.887Z" fill="#4669A5"/>
<path opacity="0.29" d="M153.296 345.653C142.804 348.985 94.1891 349.533 85.4961 344.719C83.0814 343.394 82.8459 342.062 83.7877 340.809C89.4537 341.41 95.1504 341.673 100.848 341.599C116.471 341.424 125.267 335.345 125.538 335.158L140.631 331.79L141.784 333.055L153.296 345.653Z" fill="#6A8BCE"/>
<path d="M123.202 210.2C123.202 210.803 123.202 211.405 123.172 211.977L123.136 212.953L118.276 214.978C121.029 212.49 123.106 199.403 116.574 198.62C116.101 198.566 115.623 198.566 115.149 198.62C114.486 193.836 112.924 189.22 110.543 185.016C103.685 173.195 91.8954 163.736 85.5869 159.211C85.7016 158.096 85.8706 157.066 86.0155 156.307C98.6557 161.135 109.204 170.226 115.831 182.003C116.479 183.144 117.083 184.311 117.643 185.504C121.056 192.685 122.937 200.496 123.166 208.441C123.196 209.019 123.202 209.61 123.202 210.2Z" fill="#7A2B18"/>
<path opacity="0.65" d="M105.056 334.712C104.967 335.205 104.827 335.688 104.639 336.152C103.462 339.032 100.969 339.164 99.7492 342.563C99.1817 344.153 97.7087 345.828 96.3022 347.16C92.2454 346.696 88.9251 346.081 86.7881 345.298L90.7966 336.785C93.7461 335.717 96.7556 334.822 99.8096 334.104C99.8096 334.104 101.772 334.405 105.056 334.712Z" fill="#4669A5"/>
<path d="M85.4962 346.358C80.7753 345.635 74.6842 344.063 74.6842 344.063C74.6842 344.063 67.4098 343.605 64.1801 334.031C63.2348 331.076 62.7304 327.999 62.6829 324.897C62.0792 306.443 68.9794 306.443 68.9794 306.443C68.9794 306.443 66.6793 316.685 67.4037 324.825C67.5261 326.518 67.8566 328.189 68.3878 329.802C71.2251 337.893 85.4962 346.358 85.4962 346.358Z" fill="#BED8F0"/>
<path opacity="0.29" d="M85.4965 346.358C80.7757 345.635 74.6845 344.063 74.6845 344.063C74.6845 344.063 67.4101 343.605 64.1804 334.031C64.1804 334.031 62.3694 322.734 65.3878 318.421C65.9088 320.597 66.5743 322.737 67.3799 324.825C67.5023 326.518 67.8328 328.189 68.364 329.802C71.2254 337.893 85.4965 346.358 85.4965 346.358Z" fill="#6A8BCE"/>
<path opacity="0.65" d="M87.0234 256.195L89.2631 255.116C96.1521 258.824 103.685 261.19 111.461 262.087L108.804 274.45H106.541L87.0234 256.195Z" fill="#4669A5"/>
<path d="M91.5088 277.788L93.5673 276.704L103.395 279.553L96.0183 299.574H93.6881L91.5088 277.788Z" fill="#AF4343"/>
<path d="M95.4994 341.261C95.4994 341.321 95.4692 343.394 91.509 345.623C90.9991 345.887 90.4513 346.07 89.8851 346.165C84.1079 347.286 69.9636 343.96 66.6192 328.639C62.8824 311.558 68.9796 306.455 68.9796 306.455C68.0559 309.504 68.7381 313.239 70.1205 316.987L70.2775 317.402C70.4828 317.951 70.7061 318.499 70.9476 319.041C71.1287 319.469 71.3158 319.903 71.5211 320.343C72.7019 322.823 74.0179 325.236 75.4631 327.572C75.465 327.588 75.465 327.605 75.4631 327.621C75.7227 328.042 75.9763 328.446 76.2238 328.826C77.146 330.174 78.2745 331.369 79.5682 332.368C80.1055 332.802 80.6729 333.236 81.2645 333.658L81.3249 333.694C87.2893 337.905 95.4994 341.261 95.4994 341.261Z" fill="white"/>
<path d="M124.561 211.989C124.561 211.989 120.196 221.846 113.32 224.594C106.444 227.341 98.3486 233.276 98.3486 233.276C98.3486 233.276 110.857 224.678 115.439 230.968C120.021 237.258 129.674 227.16 129.813 219.593C129.952 212.026 126.366 211.604 126.366 211.604L124.561 211.989Z" fill="#567AC3"/>
<path d="M172.04 162.952C158.618 175.515 141.443 183.345 123.142 185.245C121.415 185.425 119.674 185.552 117.92 185.624C117.551 184.853 117.171 184.088 116.767 183.341C124.856 182.738 142.496 180.575 155.523 172.96C163.673 168.194 168.466 164.115 171.267 161.121C171.521 161.717 171.786 162.32 172.04 162.952Z" fill="url(#paint8_linear)"/>
<path opacity="0.56" d="M95.4989 341.261C95.4989 341.321 95.4687 343.394 91.5086 345.623C90.9987 345.887 90.4508 346.07 89.8847 346.166C86.2653 346 82.7381 344.972 79.5972 343.17C76.4563 341.367 73.7927 338.841 71.8285 335.803C64.9465 325.301 68.3936 311.95 68.3936 311.95C68.3936 311.95 68.9972 314.046 70.1201 316.987L70.277 317.402C70.4823 317.951 70.7056 318.499 70.9471 319.041C71.1282 319.469 71.3154 319.903 71.5206 320.343C72.6264 322.86 73.9452 325.279 75.4627 327.572C75.4645 327.588 75.4645 327.605 75.4627 327.621C76.6226 329.375 78.002 330.975 79.5677 332.38C80.0999 332.852 80.6669 333.283 81.2641 333.67L81.3244 333.706C87.2888 337.905 95.4989 341.261 95.4989 341.261Z" fill="#4669A5"/>
<path opacity="0.4" d="M136.073 162.386C136.073 162.386 133.085 170.026 139.575 176.894C146.064 183.763 150.163 185.745 150.978 193.517C151.793 201.289 163.565 208.254 170.055 205.922C176.544 203.591 148.926 211.99 148.926 211.99L126.734 168.537L136.073 162.386Z" fill="#33558C"/>
<path opacity="0.4" d="M176.236 185.01C176.236 187.01 176.134 188.98 175.94 190.926C175.796 192.324 175.594 193.706 175.337 195.071C174.078 202.258 171.453 209.138 167.604 215.339C156.278 216.809 143.426 212.05 149.553 206.73C158.15 199.271 161.814 171.122 152.192 161.783C144.947 154.776 145.551 140.943 146.312 134.466C156.899 140.294 165.397 149.278 170.616 160.163C171.033 161.03 171.425 161.916 171.793 162.808C174.736 169.841 176.246 177.388 176.236 185.01Z" fill="#33558C"/>
<path d="M221.404 229.896C219.026 233.511 207.556 238.264 195.904 241.156C186.777 243.422 177.534 244.548 172.457 243.096C171.76 242.903 171.091 242.621 170.465 242.259C166.734 239.994 163.825 232.474 162.503 223.497C160.583 210.688 161.82 194.921 168.298 187.299C179.315 174.346 173.043 166.079 161.808 160.187C150.574 154.295 153.55 142.962 152.753 132.364C151.956 121.766 149.216 123.326 143.807 120.386C138.398 117.446 141.15 105.468 130.731 90.9481C130.169 90.1708 129.62 89.4539 129.071 88.7911C128.521 88.1284 128.123 87.6825 127.664 87.1885C118.79 77.7233 112.3 82.8023 111.063 74.9277C109.686 66.1734 93.0427 65.5589 93.0427 65.5589C93.0427 65.5589 85.4906 66.6072 84.9051 63.2754C84.6696 61.9499 85.3397 61.3354 86.5833 61.2209C88.4608 61.0401 91.6241 61.974 94.9323 63.2754C100.438 65.4444 112.439 66.8 122.466 67.9146C132.493 69.0292 133.091 71.9031 133.091 79.7597C133.091 87.6163 139.973 97.4249 160.106 98.9914C177.667 100.365 180.396 108.029 177.715 114.759C177.315 115.764 176.818 116.729 176.23 117.639C174.727 119.982 173.743 122.224 173.586 124.356C173.532 124.841 173.532 125.33 173.586 125.815C174.033 129.695 177.607 133.195 186.366 136.268C200.921 141.371 191.087 153.74 189.518 162.964C187.948 172.189 195.023 166.893 203.282 182.793C211.54 198.692 213.949 188.083 222.551 197.867C231.154 207.652 225.926 223.021 221.404 229.896Z" fill="url(#paint9_linear)"/>
<path opacity="0.18" d="M205.273 220.641V233.227C202.338 236.084 199.207 238.733 195.904 241.156C190.036 245.464 182.557 249.549 177.124 247.952C175.856 247.579 174.268 245.85 172.457 243.096C169.571 238.704 166.124 231.721 162.502 223.497C160.583 210.688 161.82 194.921 168.298 187.299C179.315 174.346 173.043 166.079 161.808 160.187C150.574 154.294 153.55 142.961 152.753 132.364C151.956 121.766 149.215 123.326 143.806 120.386C138.397 117.446 141.15 105.468 130.73 90.948C130.169 90.1707 129.62 89.4538 129.07 88.791C133.707 92.2734 138.313 98.7684 140.607 105.661C143.794 115.301 150.199 113.493 162.188 125.826C174.178 138.16 166.915 158.072 173.405 160.801C179.894 163.531 181.078 174.948 180.486 183.389C179.894 191.83 185.992 200.47 195.814 203.41C205.636 206.35 205.273 220.641 205.273 220.641Z" fill="#6A8BCE"/>
<path d="M90.9047 341.58C86.9203 341.436 82.4229 339.201 78.505 335.501C71.6834 329.091 66.6064 318.282 68.9788 306.443C69.3265 307.992 69.7598 309.521 70.2768 311.022C73.0899 319.366 80.9741 336.176 98.8733 335.881C98.8733 335.887 101.819 341.972 90.9047 341.58Z" fill="#BED8F0"/>
<path d="M87.0233 256.195C93.8448 260.191 101.394 262.794 109.233 263.852L106.54 274.45C106.54 274.45 94.6177 272.36 87.8262 268.63C86.5581 267.933 85.5533 266.84 84.9648 265.52C84.3763 264.199 84.2363 262.723 84.5663 261.316C85.1157 258.96 85.9669 256.406 87.0233 256.195Z" fill="#C2D3F7"/>
<path d="M91.5088 277.788L85.4961 295.845L93.6881 299.574L100.848 280.728L91.5088 277.788Z" fill="#EF7771"/>
<path d="M170.483 244.813C164.356 248.513 142.11 246.802 130.036 238.517C129.312 238.023 128.617 237.499 127.971 236.957C116.538 227.317 125.05 223.22 126.384 211.604C127.718 199.988 112.167 190.245 110.199 170.357C108.231 150.469 92.004 150.987 91.2977 141.365C91.2378 140.539 91.1351 139.716 90.9898 138.901C90.8449 138.099 90.6638 137.31 90.4465 136.539C90.362 136.232 90.2714 135.936 90.1809 135.641C89.4633 133.341 88.4487 131.143 87.1624 129.104C85.1159 125.911 82.9366 124.182 82.0794 125.128C81.2222 126.074 81.7534 127.447 82.4356 129.062C82.444 129.083 82.4541 129.103 82.4658 129.122C83.2325 130.93 84.2466 132.912 84.144 134.647C83.9508 137.985 79.4232 135.924 79.0308 129.827C78.6384 123.73 77.0628 108.824 71.4667 101.564C65.8705 94.3039 62.683 86.4052 62.4899 79.9283C62.4053 77.1328 63.1599 75.2469 64.2104 74.9517C65.5868 74.548 67.4703 76.8857 68.5871 83.465C70.3257 93.7376 81.2041 99.9915 83.6369 101.275L84.1199 101.522C92.3843 104.07 86.8727 101.715 98.0046 103.878C109.137 106.041 109.668 112.12 106.517 115.849C103.365 119.579 108.877 118.205 107.501 124.682C107.355 125.347 107.258 126.021 107.211 126.7C106.818 132.123 109.909 137.19 121.699 142.787C122.345 143.094 123.015 143.389 123.716 143.715C138.747 150.39 136.616 160.585 135.041 169.429C133.465 178.274 143.492 179.069 145.665 190.92C147.839 202.771 155.101 202.681 170.652 209.736C186.203 216.791 176.954 240.885 170.483 244.813Z" fill="url(#paint10_linear)"/>
<path opacity="0.18" d="M166.257 228.847L130.036 238.517C129.311 238.023 128.617 237.499 127.971 236.957C116.537 227.317 125.049 223.22 126.383 211.604C127.717 199.988 112.167 190.245 110.198 170.357C108.23 150.469 92.0034 150.987 91.2971 141.365C91.2373 140.539 91.1345 139.716 90.9893 138.901C93.2893 146.01 100.485 146.474 108.575 152.294C117.485 158.705 121.294 165.935 118.433 176.701C115.571 187.468 130.736 204.374 145.683 208.634C160.63 212.893 166.257 228.847 166.257 228.847Z" fill="#6A8BCE"/>
<path d="M225.926 329.211C221.615 334.194 183.179 347.322 166.324 350.365C164.448 350.736 162.543 350.938 160.631 350.967C149.614 350.769 134.932 341.562 134.932 341.562C134.932 341.562 118.083 233.324 114.377 228.076C114.377 228.076 112.988 225.781 115.723 227.136C115.723 227.136 143.812 241.488 156.405 242.253C157.026 242.295 157.65 242.295 158.271 242.253C169.674 241.47 223.565 227.13 223.565 227.13C223.565 227.13 230.248 265.419 229.644 302.521C229.644 302.521 230.852 323.524 225.926 329.211Z" fill="url(#paint11_linear)"/>
<path d="M166.324 350.371C164.448 350.742 162.543 350.944 160.631 350.973C149.614 350.775 134.932 341.568 134.932 341.568C134.932 341.568 118.083 233.324 114.377 228.076C114.377 228.076 112.988 225.781 115.723 227.136C115.723 227.136 143.812 241.488 156.405 242.253C156.405 242.253 170.839 332.266 166.324 350.371Z" fill="url(#paint12_linear)"/>
<path d="M87.2884 280.097C88.438 276.265 88.0909 272.777 86.5131 272.305C84.9353 271.834 82.7243 274.558 81.5747 278.389C80.4251 282.221 80.7722 285.709 82.35 286.181C83.9278 286.652 86.1388 283.928 87.2884 280.097Z" fill="#C2D3F7"/>
<path d="M169.082 255.116L221.403 243.434L222.55 261.454L171.05 274.45L169.082 255.116Z" fill="#ECF0FA"/>
<path opacity="0.65" d="M221.403 243.434L218.155 242.259L166.232 253.64L168.496 273.86L171.05 274.45L169.082 255.116L221.403 243.434Z" fill="#4669A5"/>
<path d="M187.99 333.965C186.96 334.102 185.912 334.024 184.914 333.734C183.916 333.444 182.99 332.95 182.194 332.282C181.399 331.615 180.752 330.789 180.294 329.858C179.837 328.926 179.579 327.91 179.538 326.873L177.123 290.977C176.984 288.805 177.663 286.66 179.027 284.963C180.39 283.265 182.34 282.137 184.494 281.801C185.524 281.663 186.572 281.742 187.57 282.032C188.568 282.321 189.494 282.816 190.29 283.483C191.085 284.151 191.732 284.977 192.19 285.908C192.647 286.839 192.905 287.856 192.946 288.892L195.361 324.789C195.501 326.961 194.823 329.106 193.459 330.804C192.095 332.502 190.144 333.63 187.99 333.965Z" fill="#AF4343"/>
<path d="M189.801 331.724C188.859 331.849 187.902 331.778 186.99 331.513C186.077 331.249 185.23 330.797 184.503 330.188C183.775 329.578 183.183 328.824 182.763 327.973C182.344 327.123 182.107 326.194 182.068 325.247L179.87 292.459C179.73 290.466 180.344 288.493 181.592 286.931C182.84 285.369 184.63 284.332 186.607 284.024C187.55 283.897 188.508 283.969 189.421 284.233C190.334 284.497 191.182 284.949 191.91 285.559C192.638 286.17 193.23 286.925 193.649 287.777C194.067 288.629 194.303 289.559 194.341 290.507L196.526 323.319C196.66 325.305 196.044 327.27 194.8 328.825C193.555 330.381 191.772 331.415 189.801 331.724Z" fill="#EF7771"/>
<path d="M217.571 323.969C216.638 324.093 215.69 324.022 214.787 323.76C213.884 323.497 213.045 323.05 212.325 322.446C211.605 321.843 211.019 321.096 210.604 320.253C210.189 319.41 209.955 318.491 209.916 317.553L207.749 285.072C207.627 283.115 208.24 281.182 209.469 279.651C210.698 278.121 212.454 277.102 214.395 276.794C215.327 276.669 216.275 276.74 217.177 277.001C218.08 277.263 218.918 277.71 219.638 278.313C220.358 278.916 220.944 279.663 221.358 280.505C221.773 281.348 222.006 282.267 222.044 283.205L224.211 315.661C224.34 317.622 223.73 319.561 222.502 321.098C221.274 322.635 219.515 323.659 217.571 323.969Z" fill="#AF4343"/>
<path d="M219.164 321.939C218.312 322.053 217.445 321.988 216.619 321.749C215.794 321.509 215.027 321.101 214.369 320.549C213.71 319.998 213.174 319.315 212.795 318.545C212.416 317.775 212.202 316.934 212.167 316.077L210.187 286.386C210.075 284.59 210.637 282.817 211.765 281.413C212.892 280.009 214.504 279.076 216.284 278.794C217.136 278.68 218.003 278.745 218.828 278.985C219.654 279.224 220.421 279.632 221.079 280.184C221.737 280.736 222.273 281.419 222.652 282.189C223.032 282.959 223.246 283.799 223.281 284.657L225.261 314.348C225.373 316.143 224.811 317.916 223.683 319.32C222.556 320.724 220.944 321.658 219.164 321.939Z" fill="#EF7771"/>
<path d="M53.091 49.1348C51.117 51.2616 47.1025 55.3826 40.4137 54.5572C37.8205 54.1805 35.3254 53.3048 33.0668 51.9785L32.6503 51.7496C25.4061 47.5321 15.2098 33.5422 8.21315 21.9923C7.55312 20.9078 6.92528 19.8474 6.32964 18.8111C6.32964 18.8111 6.28739 18.7388 6.26325 18.7027C3.17238 13.3405 0.98704 8.85186 0.443724 6.65275C-0.673091 2.23043 1.35529 0.880833 3.02749 0.495235C3.91375 0.297052 4.83586 0.32607 5.70785 0.579584C10.5304 1.92315 15.2219 3.69765 19.7254 5.88155C19.7781 5.90284 19.8286 5.92906 19.8763 5.95987C35.2582 13.4248 46.2392 24.1071 52.27 29.168C52.433 29.3126 52.602 29.4512 52.759 29.5777L52.8435 29.65C60.3654 35.9943 55.7291 46.297 53.091 49.1348Z" fill="url(#paint13_linear)"/>
<path opacity="0.15" d="M52.8435 29.6681L48.2857 28.2764C40.1474 19.2905 30.5364 11.7521 19.8643 5.98401C35.2582 13.4248 46.2392 24.1071 52.27 29.1681C52.433 29.3127 52.602 29.4512 52.759 29.5778L52.8435 29.6681Z" fill="url(#paint14_linear)"/>
<path opacity="0.15" d="M40.4193 54.5813C37.8261 54.2046 35.331 53.3288 33.0724 52.0026L32.6559 51.7737C25.4117 47.5562 15.2154 33.5662 8.21875 22.0164C8.87073 22.8418 29.9876 49.2311 38.0951 53.0027C38.9552 53.3912 39.7415 53.9253 40.4193 54.5813Z" fill="url(#paint15_linear)"/>
<path d="M53.09 49.1347C50.47 51.9484 44.2823 58.2686 33.0718 52.0026C29.9025 47.4537 30.7899 40.1816 35.5409 34.5724C40.2919 28.9631 47.2524 26.8905 52.269 29.1861C52.432 29.3307 52.601 29.4692 52.758 29.5958C60.4006 35.9159 55.7402 46.2849 53.09 49.1347Z" fill="url(#paint16_linear)"/>
<path d="M52.0808 48.5095C56.6227 43.1435 56.9351 35.9527 52.7785 32.4483C48.622 28.9438 41.5705 30.4529 37.0285 35.8189C32.4866 41.1848 32.1743 48.3757 36.3308 51.8801C40.4874 55.3845 47.5389 53.8754 52.0808 48.5095Z" fill="#020008"/>
<path d="M26.6313 58.3168C26.269 58.0035 11.9799 45.3812 20.7453 35.3135L27.8809 42.923L29.4203 44.5678C29.4203 44.5678 24.4338 49.442 26.6313 58.3168Z" fill="url(#paint17_linear)"/>
<path d="M59.3441 23.9082C50.3734 22.0526 45.6767 27.2099 45.6767 27.2099L44.0286 25.794L36.0781 18.9256C45.8216 9.79175 59.0181 23.5648 59.3381 23.9082H59.3441Z" fill="url(#paint18_linear)"/>
<path d="M21.0464 25.6495C24.4872 25.6495 27.2764 22.8657 27.2764 19.4318C27.2764 15.9978 24.4872 13.214 21.0464 13.214C17.6057 13.214 14.8164 15.9978 14.8164 19.4318C14.8164 22.8657 17.6057 25.6495 21.0464 25.6495Z" fill="white"/>
<path d="M137.033 466.948C137.033 467.008 137.033 467.074 137.033 467.141C136.9 470.021 132.807 473.943 127.464 476.564C122.122 479.185 104.386 479.311 100.19 473.816C98.3789 471.406 97.9141 469.406 97.9926 467.888C98.0179 466.766 98.3913 465.68 99.0611 464.779C99.0611 464.779 102.683 465.839 111.201 468.713C119.719 471.587 136.375 462.959 136.375 462.959C136.375 462.959 137.123 464.2 137.033 466.948Z" fill="white"/>
<path opacity="0.56" d="M137.033 466.948C132.058 470.442 121.693 473.804 112.589 473.292C101.367 472.654 98.1795 468.171 97.9863 467.87C98.0117 466.748 98.385 465.662 99.0548 464.761C99.0548 464.761 102.677 465.821 111.195 468.695C119.713 471.569 136.369 462.941 136.369 462.941C136.369 462.941 137.123 464.2 137.033 466.948Z" fill="#4669A5"/>
<path d="M98.5296 456.284C98.5296 456.284 104.639 463.345 116.707 464.261C128.774 465.177 138.089 457.91 138.089 457.91C138.089 457.91 141.107 461.381 133.489 465.701C125.87 470.021 119.985 472.376 109.233 469.918C98.4813 467.46 95.5655 462.176 98.5296 456.284Z" fill="#BED8F0"/>
<path d="M97.9805 410.753L99.9243 409.596C100.477 409.268 101.099 409.074 101.74 409.028C102.382 408.982 103.025 409.086 103.619 409.331C113.037 413.092 122.996 415.329 133.121 415.959C133.485 415.98 133.84 416.077 134.164 416.244C134.487 416.412 134.772 416.645 135 416.929C135.227 417.213 135.393 417.541 135.485 417.893C135.577 418.245 135.595 418.612 135.536 418.971L132.656 437.058C132.548 437.733 132.27 438.369 131.847 438.906C131.425 439.444 130.872 439.865 130.241 440.131L127.32 441.336L97.9805 410.753Z" fill="#4669A5"/>
<path d="M142.665 565.805C142.061 566.842 131.08 568.86 123.546 569.649H123.407C123.16 569.686 122.984 569.698 122.882 569.704H122.791L125.81 570.258C122.989 570.666 120.147 570.911 117.298 570.993C112.764 570.993 109.891 570.306 109.335 568.939C109.088 568.336 109.281 567.625 109.939 566.776C112.197 563.956 119.224 560.576 118.674 556.919C118.469 555.611 115.903 544.61 112.577 530.222C112.577 530.222 113.012 530.282 113.784 530.361C117.135 530.686 126.896 531.27 135.758 528.143C137.953 527.39 140.051 526.379 142.007 525.131C142.085 525.733 142.151 526.3 142.224 526.884C144.657 547.658 143.419 564.552 142.665 565.805Z" fill="#6A8BCE"/>
<path d="M112.571 530.252C112.571 530.252 110.76 529.722 111.557 528.445C112.354 527.167 124.735 529.234 133.586 526.583C142.436 523.932 141.947 521.763 142.924 521.968C143.902 522.173 144.693 523.408 142.737 524.655C140.781 525.902 137.781 533.235 112.571 530.252Z" fill="#BED8F0"/>
<path opacity="0.56" d="M142.218 526.902C144.632 547.658 143.425 564.552 142.664 565.805C142.025 566.878 130.295 569.005 122.743 569.734C127.464 565.95 132.637 559.148 131.557 547.839C129.649 527.776 118.125 492.524 124.373 450.801C130.621 409.078 149.311 377.17 149.311 377.17L165.218 377.001L179.851 375.393C179.851 375.393 137.159 455.362 136.368 462.965C135.577 470.569 138.994 502.224 141.88 524.209C142 525.107 142.109 526.005 142.218 526.902Z" fill="#4669A5"/>
<path d="M21.0464 23.8238C23.4769 23.8238 25.4472 21.8574 25.4472 19.4316C25.4472 17.0059 23.4769 15.0394 21.0464 15.0394C18.6158 15.0394 16.6455 17.0059 16.6455 19.4316C16.6455 21.8574 18.6158 23.8238 21.0464 23.8238Z" fill="#020008"/>
<path d="M19.8636 5.98504C10.3858 7.79252 7.26473 13.9802 6.31695 18.8182C6.31695 18.8182 6.2747 18.7459 6.25055 18.7098C3.15969 13.3475 0.974344 8.85894 0.431029 6.65983C-0.685786 2.23751 1.34259 0.887913 3.0148 0.502315C3.90105 0.304132 4.82316 0.33315 5.69515 0.586664C10.5177 1.93024 15.2092 3.70473 19.7127 5.88863L19.8636 5.98504Z" fill="url(#paint19_linear)"/>
<path opacity="0.65" d="M163.769 249.567C163.769 249.567 166.039 258.291 162.351 263.003C158.662 267.714 155.233 271.378 159.701 280.668C164.168 289.959 163.214 297.417 156.018 301.864C148.822 306.31 145.756 313.01 150.38 320.981C155.004 328.952 131.146 310.239 134.479 301.496C137.811 292.754 147.609 281.072 147.627 270.082C147.645 259.093 152.191 254.128 152.191 254.128L163.769 249.567Z" fill="#4669A5"/>
<path d="M219.822 312.191C219.282 312.263 218.732 312.222 218.209 312.071C217.685 311.919 217.199 311.66 216.781 311.31C216.363 310.96 216.024 310.527 215.783 310.039C215.543 309.55 215.407 309.017 215.385 308.473L214.13 289.645C214.056 288.505 214.412 287.378 215.128 286.486C215.844 285.594 216.868 285.002 217.999 284.825C218.54 284.754 219.089 284.795 219.612 284.947C220.136 285.099 220.621 285.358 221.039 285.708C221.456 286.058 221.796 286.49 222.037 286.978C222.277 287.467 222.413 287.999 222.436 288.543L223.692 307.371C223.767 308.512 223.412 309.639 222.696 310.531C221.98 311.423 220.954 312.015 219.822 312.191Z" fill="white"/>
<path d="M56.5137 39.308C54.5145 37.6873 51.966 36.8988 49.3988 37.1065C46.8316 37.3143 44.4436 38.5023 42.7321 40.4232C41.0206 42.3441 40.1174 44.8498 40.2107 47.4187C40.3039 49.9875 41.3864 52.4215 43.2327 54.2137C43.2327 54.2137 50.9357 62.7752 72.6985 67.059C72.6985 67.059 71.7688 57.2262 58.2101 41.2239C57.7281 40.5162 57.1581 39.8724 56.5137 39.308Z" fill="url(#paint20_linear)"/>
<path opacity="0.65" d="M192.481 235.445C193.105 237.642 194.562 239.509 196.544 240.65C199.961 242.717 198.391 246.995 204.996 249.567C211.6 252.14 215.548 251.754 212.928 258.948C210.308 266.142 227.03 254.556 222.533 247.199C218.035 239.843 201.271 233.414 200.879 233.276C200.486 233.137 192.475 230.661 192.481 235.445Z" fill="#4669A5"/>
<path d="M52.6497 41.3987C52.0738 40.8844 51.402 40.4883 50.6727 40.2332C49.9434 39.978 49.1708 39.8687 48.3992 39.9115C47.6276 39.9543 46.8719 40.1484 46.1755 40.4826C45.479 40.8169 44.8553 41.2848 44.34 41.8596C43.8247 42.4344 43.4279 43.1049 43.1722 43.8327C42.9165 44.5606 42.807 45.3316 42.8499 46.1017C42.8928 46.8718 43.0872 47.626 43.4221 48.3211C43.7571 49.0162 44.2259 49.6387 44.8018 50.1529C44.8018 50.1529 49.3294 55.1838 62.1094 57.6962C62.1094 57.6962 61.5661 51.9243 53.5975 42.5253C53.3299 42.1118 53.0115 41.7333 52.6497 41.3987Z" fill="white"/>
<path d="M137.16 123.899C134.932 128.719 122.067 124.29 117.884 111.728C116.381 107.209 114.31 104.643 112.131 102.757C111.293 102.042 110.418 101.37 109.511 100.745C106.492 98.6178 103.54 96.8464 101.916 92.0988C98.6385 82.5492 92.3481 83.7241 86.6191 80.4525C85.2811 79.7202 84.0834 78.7575 83.0815 77.6087C81.1075 75.265 81.3308 73.2527 81.3308 73.2527C82.5382 77.181 89.8549 79.5367 95.4933 80.7116C101.132 81.8864 101.657 86.0798 102.574 90.0081C103.492 93.9364 108.472 95.6294 119.478 102.829C130.483 110.029 139.387 119.054 137.16 123.899Z" fill="url(#paint21_linear)"/>
<path d="M270.176 258.942C259.75 266.009 266.638 273.86 258.374 277.788C251.298 281.15 248.413 283.47 247.356 286.982C247.177 287.595 247.048 288.222 246.97 288.856C246.366 293.489 236.744 291.158 237.528 283.982C238.271 277.168 243.807 275.053 242.925 269.305C242.882 268.99 242.819 268.678 242.738 268.371C241.066 261.894 235.367 259.129 239.889 252.17C244.41 245.211 242.841 240.891 238.905 240.723C234.969 240.554 236.738 247.555 231.824 249.603C226.91 251.652 225.98 243.783 225.98 243.783C225.98 243.783 224.35 229.516 223.565 227.172L209.167 230.92C209.167 230.92 206.197 230.643 204.597 228.444C203.837 227.407 203.39 225.931 203.698 223.847C203.841 222.937 204.043 222.037 204.302 221.153C205.545 216.701 207.67 215.014 207.67 215.014C207.67 215.014 208.443 214.152 209.747 212.893C213.532 209.242 221.778 202.265 228.503 203.428C237.559 205.001 237.353 208.664 240.698 203.302C241.905 201.416 245.642 199.265 250.097 197.945C258.313 195.505 268.811 195.891 269.602 205.959C270.526 218.117 266.511 221.84 268.491 225.992C268.615 226.253 268.758 226.505 268.92 226.745C269.706 227.889 270.666 228.905 271.763 229.757C275.035 232.456 277.118 236.746 277.685 241.355C278.458 247.748 276.261 254.815 270.176 258.942Z" fill="url(#paint22_linear)"/>
<path d="M249.921 237.547C245.985 248.736 240.479 249.917 242.073 256.195C243.619 262.346 242.979 269.022 242.948 269.299C242.905 268.984 242.842 268.672 242.761 268.365C241.089 261.888 235.39 259.123 239.912 252.164C244.433 245.205 242.864 240.885 238.928 240.717C234.992 240.548 236.761 247.549 231.847 249.597C226.933 251.646 226.003 243.777 226.003 243.777C226.003 243.777 224.373 229.51 223.588 227.166L209.19 230.914C209.19 230.914 206.22 230.637 204.621 228.438C204.183 226.033 204.076 223.581 204.301 221.147C204.627 218.219 205.671 215.725 207.778 214.128C207.778 214.128 208.532 213.58 209.746 212.887C212.813 211.122 218.801 208.387 223.196 210.983C229.293 214.598 226.54 220.696 234.207 221.485C241.874 222.274 253.851 226.359 249.921 237.547Z" fill="url(#paint23_linear)"/>
<path d="M100.19 410.916C104.663 413.278 114.497 417.489 128.956 418.333C129.345 418.356 129.724 418.461 130.07 418.64C130.416 418.819 130.721 419.068 130.964 419.372C131.207 419.676 131.384 420.027 131.484 420.403C131.583 420.779 131.602 421.172 131.539 421.556L128.642 439.426C128.532 440.109 128.171 440.727 127.63 441.159C127.089 441.591 126.406 441.807 125.714 441.764C119.333 441.354 102.52 439.631 94.5093 432.521C94.1887 432.233 93.9411 431.873 93.7868 431.471C93.6325 431.069 93.576 430.636 93.6219 430.208C93.9419 426.846 94.8776 417.923 96.1936 412.699C96.296 412.291 96.4899 411.911 96.7608 411.589C97.0317 411.266 97.3725 411.01 97.7574 410.838C98.1423 410.666 98.5613 410.584 98.9827 410.597C99.4041 410.611 99.8169 410.72 100.19 410.916Z" fill="#BED8F0"/>
<path d="M182.158 237.547L164.929 241.277C164.371 241.393 163.854 241.654 163.43 242.034C163.006 242.414 162.69 242.899 162.514 243.44C162.225 244.398 162.303 245.783 163.203 247.754C165.823 253.507 160.251 256.189 157.498 258.942C154.745 261.689 150.628 265.232 156.043 279.204C160.045 289.513 155.524 293.025 150.664 296.122C148.924 297.14 147.267 298.292 145.708 299.568C140.196 304.479 140.003 305.063 149.578 319.589C159.152 334.116 138.627 345.696 126.776 331.778C114.926 317.86 126.432 300.749 130.561 295.056C131.431 293.889 132.153 292.621 132.711 291.278C134.57 286.651 133.683 281.397 127.96 273.269C120.637 262.864 125.249 248.338 136.411 245.784C143.39 244.187 144.549 242.036 144.44 240.644C144.385 240.139 144.174 239.663 143.836 239.283C132.258 236.372 115.747 227.16 115.747 227.16C116.024 226.446 116.361 225.757 116.755 225.1C118.596 222.129 122.991 217.237 130.9 219.991C141.917 223.822 141.917 221.063 145.654 220.141C149.39 219.219 152.336 218.334 159.297 222.834C166.257 227.335 169.843 217.924 176.2 220.647C178.246 221.521 179.587 223.575 180.468 225.967C182.364 231.004 182.158 237.547 182.158 237.547Z" fill="url(#paint24_linear)"/>
<path opacity="0.31" d="M207.362 264.346C207.362 264.346 202.442 265.359 204.15 274.908C205.859 284.458 210.845 290.218 218.977 289.971C227.109 289.724 223.323 280.011 223.323 280.011C223.323 280.011 214.516 278.848 211.25 273.613C207.984 268.377 207.362 264.346 207.362 264.346Z" fill="#4669A5"/>
<path d="M214.516 271.703C214.468 273.721 216.025 274.788 217.848 275.716C220.607 277.113 223.976 278.192 223.36 281.741C222.334 287.639 214.673 287.838 210.169 283.108C205.666 278.379 202.321 268.371 206.052 265.636C209.783 262.9 205.63 261.906 210.169 258.376C214.286 255.17 218.192 254.032 216.623 250.694C216.437 250.304 216.214 249.933 215.959 249.585C212.94 245.368 208.25 249.296 205.286 245.097C202.321 240.897 203.106 238.349 200.154 238.349C197.202 238.349 195.928 237.084 195.379 235.8C194.83 234.517 186.251 236.595 186.251 236.595C186.251 236.595 184.102 229.233 188.195 226.727C191.491 224.708 193.091 225.04 193.628 222.798C193.77 222.094 193.836 221.377 193.828 220.659C193.876 215.972 200.565 210.086 206.469 214.032L206.614 214.134C212.252 218.045 205.455 223.407 208.425 226.859C211.395 230.311 214.256 228.588 214.649 231.535C215.041 234.481 217.275 239.367 220.227 239.156C221.535 239.03 222.853 239.229 224.066 239.734C225.278 240.24 226.346 241.037 227.175 242.054C228.467 243.657 229.469 246.091 229.789 249.754C230.646 259.533 214.643 266.636 214.516 271.703Z" fill="url(#paint25_linear)"/>
<path d="M207.416 458.182C207.321 459.09 207.013 459.963 206.517 460.73C204.422 464.128 193.67 468.057 184.621 468.563C175.572 469.069 171.34 465.237 172.034 463.14C172.729 461.043 173.085 460.459 174.262 460.326C175.439 460.194 198.518 460.983 206.517 454.832C207.229 455.795 207.55 456.992 207.416 458.182Z" fill="white"/>
<path opacity="0.56" d="M207.416 458.182C206.148 459.387 203.655 462.086 192.119 464.52C180.335 467.008 172.034 463.146 172.034 463.146C172.753 461.037 173.085 460.465 174.262 460.333C175.439 460.2 198.518 460.989 206.517 454.838C207.227 455.8 207.549 456.994 207.416 458.182Z" fill="#4669A5"/>
<path d="M172.62 455.886C172.62 455.886 189.523 464.321 206.734 450.801C206.734 450.801 208.37 452.874 205.738 455.886C203.106 458.899 197.999 462.17 188.165 462.965C178.331 463.761 173.073 462.05 171.901 460.218C170.73 458.386 172.62 455.886 172.62 455.886Z" fill="#BED8F0"/>
<path d="M206.1 519.793C206.1 520.058 206.1 520.329 206.07 520.6C205.569 534.458 205.961 556.045 203.257 558.738C201.21 560.781 192.505 561.751 185.949 561.907C185.025 561.907 184.138 561.944 183.329 561.944C182.689 562.281 182.278 562.486 182.206 562.546C180.741 562.585 179.276 562.47 177.835 562.203C177.081 561.98 177.377 561.13 178.228 559.961C180.486 556.846 186.679 551.412 187.283 549.201C187.621 547.954 185.864 537.988 183.522 525.035L183.733 525.089C185.08 525.408 192.68 527.011 199.471 524.432C202.042 523.478 204.325 521.88 206.1 519.793Z" fill="#6A8BCE"/>
<path d="M183.48 525.023C183.48 525.023 181.772 524.42 182.273 523.649C182.774 522.878 187.332 524.534 192.131 524.336C196.93 524.137 204.283 520.48 206.209 517.353C208.134 514.226 207.627 517.991 206.547 519.245C205.466 520.498 201.313 528.547 183.48 525.023Z" fill="white"/>
<path opacity="0.56" d="M206.39 514.509C206.239 516.25 206.136 518.323 206.052 520.6C205.551 534.458 205.943 556.045 203.239 558.738C201.192 560.781 192.487 561.751 185.931 561.907C189.034 558.961 193.175 554.34 194.733 549.448C197.371 541.206 186.589 490.566 185.677 472.563C184.766 454.561 176.218 382.189 176.218 382.189L179.84 375.381L181.651 375.037L196.52 371.597L202.2 369.639C212.735 366.512 218.886 356.516 218.886 356.516C218.886 356.516 209.227 442.005 206.366 452.211C203.504 462.417 207.434 502.212 206.39 514.509Z" fill="#4669A5"/>
<path opacity="0.18" d="M87.1384 129.05C85.0919 125.857 82.9126 124.127 82.0554 125.073C81.1981 126.019 81.7294 127.393 82.4115 129.008C82.0252 128.23 77.9443 119.922 78.222 114.704C78.5057 109.282 73.5132 100.612 73.3623 100.347C73.5494 100.582 77.4613 105.54 78.4212 109.384C79.3992 113.313 80.9748 118.217 83.3352 120.374C85.6956 122.531 87.0539 128.664 87.1384 129.05Z" fill="#6A8BCE"/>
<path opacity="0.18" d="M121.699 142.787C121.095 142.606 104.138 137.581 100.848 129.05C97.4972 120.362 96.8995 113.301 90.9049 109.571C85.3269 106.101 81.8074 103.474 81.3486 103.125C82.1032 103.576 90.2409 108.402 93.6879 108.589C97.31 108.782 105.321 116.422 105.442 121.543C105.574 123.392 106.2 125.173 107.253 126.7C106.842 132.105 109.933 137.19 121.699 142.787Z" fill="#6A8BCE"/>
<path d="M90.1934 135.611C90.3416 135.889 90.432 136.195 90.459 136.509C90.3564 136.202 90.2658 135.906 90.1934 135.611Z" fill="#6A8BCE"/>
<path opacity="0.18" d="M177.727 114.723C177.327 115.728 176.829 116.693 176.242 117.602C174.739 119.946 173.755 122.187 173.598 124.32C173.447 120.705 172.439 111.355 166.239 108.378C158.463 104.661 151.769 101.913 151.769 101.913C151.769 101.913 173.435 102.781 177.727 114.723Z" fill="#6A8BCE"/>
<path opacity="0.18" d="M127.67 87.1644C118.796 77.6992 112.306 82.7782 111.069 74.9036C109.692 66.1493 93.0486 65.5347 93.0486 65.5347C93.0486 65.5347 85.4965 66.5831 84.9109 63.2513C84.6755 61.9258 85.3456 61.3113 86.5892 61.1968C86.5892 61.1968 84.1744 63.4381 89.5653 63.8357C94.9562 64.2334 109.753 67.1073 112.505 71.0295C115.258 74.9518 117.896 79.0126 123.197 81.6274C125.593 82.7902 126.927 85.0556 127.67 87.1644Z" fill="#6A8BCE"/>
<path opacity="0.18" d="M83.6368 101.275C81.6833 100.834 79.7645 100.252 77.8958 99.5335C67.9289 95.7137 66.8785 86.7365 66.3533 81.3683C65.8281 76 64.2344 74.9577 64.2344 74.9577C65.6108 74.554 67.4943 76.8917 68.6111 83.471C70.3255 93.7375 81.2039 99.9914 83.6368 101.275Z" fill="#6A8BCE"/>
<path d="M143.812 239.259C132.233 236.348 115.723 227.136 115.723 227.136C116.008 226.429 116.354 225.748 116.755 225.1C116.972 224.901 121.832 220.557 127.253 224.009C132.801 227.546 132.541 230.818 137.654 230.818C142.768 230.818 144.301 236.975 143.812 239.259Z" fill="url(#paint26_linear)"/>
<path opacity="0.18" d="M182.158 237.547L164.929 241.277C164.371 241.393 163.854 241.654 163.43 242.034C163.006 242.414 162.69 242.899 162.514 243.44C162.514 243.44 161.234 238.331 166.251 235.981C171.268 233.631 177.655 233.179 178.777 228.847C179.085 227.745 179.689 226.747 180.522 225.961C182.363 231.004 182.158 237.547 182.158 237.547Z" fill="#6A8BCE"/>
<path opacity="0.18" d="M129.812 267.973C134.865 279.752 135.584 286.434 132.704 291.254C134.563 286.627 133.676 281.373 127.953 273.245C120.63 262.84 125.243 248.314 136.405 245.759C143.383 244.163 144.542 242.012 144.434 240.62C144.796 242.012 144.796 244.271 142.375 246.645C138.403 250.501 124.76 256.195 129.812 267.973Z" fill="#6A8BCE"/>
<path opacity="0.18" d="M150.639 296.128C153.845 287.952 147.621 287.241 146.86 276.192C146.087 264.744 157.123 259.117 157.473 258.948C154.72 261.696 150.603 265.238 156.018 279.21C160.02 289.519 155.499 293.061 150.639 296.128Z" fill="#6A8BCE"/>
<path d="M216.629 250.676C216.443 250.286 216.22 249.915 215.965 249.567C212.946 245.35 208.256 249.278 205.291 245.079C202.327 240.879 203.112 238.331 200.16 238.331C197.208 238.331 195.934 237.065 195.385 235.782C194.836 234.499 186.257 236.577 186.257 236.577C186.257 236.577 184.108 229.215 188.201 226.709C191.497 224.69 193.097 225.022 193.634 222.78C194.22 222.696 194.812 222.661 195.403 222.678C201.754 222.828 199.194 227.721 202.931 230.968C206.668 234.216 205.563 241.669 212.801 243.44C217.902 244.687 217.371 248.531 216.629 250.676Z" fill="url(#paint27_linear)"/>
<path opacity="0.18" d="M208.419 226.823C208.419 226.823 203.897 223.955 205.273 220.641C206.023 218.534 206.47 216.331 206.602 214.098C212.24 218.008 205.442 223.371 208.419 226.823Z" fill="#6A8BCE"/>
<path opacity="0.18" d="M214.515 271.703C214.467 273.721 216.024 274.788 217.847 275.716C217.847 275.716 211.171 273.86 211.962 267.582C212.752 261.304 224.687 259.231 226.679 249.567C227.272 247.097 227.437 244.544 227.168 242.018C228.46 243.621 229.462 246.055 229.782 249.718C230.646 259.532 214.642 266.636 214.515 271.703Z" fill="#6A8BCE"/>
<path opacity="0.18" d="M268.472 225.955C268.273 225.763 264.754 222.34 265.388 215.237C266.046 207.911 266.221 198.12 250.078 197.909C258.294 195.469 268.792 195.855 269.583 205.922C270.507 218.081 266.468 221.804 268.472 225.955Z" fill="#6A8BCE"/>
<path opacity="0.18" d="M270.175 258.942C259.749 266.009 266.637 273.86 258.373 277.788C251.298 281.15 248.412 283.47 247.355 286.982C247.355 286.53 247.79 279.945 254.117 274.45C260.667 268.757 256.211 261.165 263.685 255.279C271.159 249.392 273.911 240.361 270.929 235.782C273.746 236.804 276.133 238.747 277.703 241.295C278.457 247.748 276.26 254.815 270.175 258.942Z" fill="#6A8BCE"/>
<path d="M99.2483 189.33C99.2483 189.33 84.8504 187.233 77.902 178.485C70.9536 169.736 70.9355 162.422 73.3683 160.181C75.8012 157.94 76.9904 165.688 77.6364 168.556C78.2823 171.423 80.9929 183.57 99.2483 189.33Z" fill="#EA6446"/>
<path d="M80.2504 172.827C80.2504 172.827 78.4393 169.176 78.8136 166.887C79.1879 164.597 79.852 168.441 80.2504 169.857C80.4782 170.834 80.4782 171.85 80.2504 172.827Z" fill="#EA6446"/>
<path d="M91.3091 191.053C91.3091 191.053 90.5485 191.722 92.269 191.697C93.9895 191.673 98.342 193.137 99.2053 193.981C100.069 194.824 95.2391 189.534 91.3091 191.053Z" fill="#EA6446"/>
<path d="M190.628 319.758C190.056 319.835 189.474 319.792 188.919 319.631C188.365 319.471 187.85 319.197 187.407 318.826C186.964 318.456 186.604 317.998 186.349 317.481C186.094 316.964 185.95 316.4 185.925 315.824L184.597 295.875C184.514 294.667 184.889 293.472 185.649 292.527C186.409 291.583 187.496 290.958 188.696 290.778C189.268 290.7 189.851 290.743 190.405 290.903C190.96 291.063 191.475 291.337 191.917 291.708C192.36 292.078 192.719 292.537 192.973 293.054C193.228 293.572 193.37 294.136 193.393 294.712L194.727 314.661C194.81 315.869 194.435 317.064 193.675 318.009C192.916 318.953 191.828 319.578 190.628 319.758Z" fill="white"/>
<path d="M99.4778 412.32C99.4778 412.32 109.801 417.676 117.516 418.592C125.231 419.507 129.028 419.64 128.769 422.387C128.509 425.135 127.459 439.257 125.883 439.86C124.307 440.462 109.101 438.48 103.07 435.865C97.0389 433.25 95.0709 431.413 95.2218 430.238C95.3728 429.063 97.9988 412.32 97.9988 412.32C97.9988 412.32 98.5119 411.277 99.4778 412.32Z" stroke="white" stroke-miterlimit="10"/>
<path opacity="0.29" d="M90.905 341.58C86.9207 341.436 82.4233 339.201 78.5054 335.501C78.3665 335.14 75.6862 327.934 72.6557 324.024C69.6252 320.114 70.2409 311.311 70.2771 311.028C73.0903 319.373 80.9744 336.182 98.8736 335.887C98.8736 335.887 101.82 341.972 90.905 341.58Z" fill="#6A8BCE"/>
<path d="M87.1748 259.924C87.1748 259.924 100.456 265.304 106.571 265.347C106.571 265.347 106.945 268.359 105.086 268.654C103.227 268.949 90.6399 265.69 88.5452 264.292C86.4504 262.894 87.1748 259.924 87.1748 259.924Z" stroke="white" stroke-miterlimit="10"/>
<path d="M94.2195 285.09C95.3164 285.09 96.2057 284.203 96.2057 283.108C96.2057 282.013 95.3164 281.126 94.2195 281.126C93.1226 281.126 92.2334 282.013 92.2334 283.108C92.2334 284.203 93.1226 285.09 94.2195 285.09Z" stroke="white" stroke-miterlimit="10"/>
<path d="M90.7781 294.182C91.875 294.182 92.7642 293.295 92.7642 292.2C92.7642 291.105 91.875 290.218 90.7781 290.218C89.6812 290.218 88.792 291.105 88.792 292.2C88.792 293.295 89.6812 294.182 90.7781 294.182Z" stroke="white" stroke-miterlimit="10"/>
<path d="M191.648 326C192.745 326 193.634 325.113 193.634 324.018C193.634 322.923 192.745 322.036 191.648 322.036C190.551 322.036 189.662 322.923 189.662 324.018C189.662 325.113 190.551 326 191.648 326Z" stroke="white" stroke-miterlimit="10"/>
<path d="M220.854 318.414C221.951 318.414 222.84 317.527 222.84 316.432C222.84 315.338 221.951 314.45 220.854 314.45C219.757 314.45 218.868 315.338 218.868 316.432C218.868 317.527 219.757 318.414 220.854 318.414Z" stroke="white" stroke-miterlimit="10"/>
<path opacity="0.25" d="M69.5049 159.759C69.5049 159.759 93.3987 171.472 104.392 188.709C115.385 205.946 116.097 192.414 113.32 188.709C110.543 185.004 105.889 171.96 94.4189 163.597C82.9489 155.234 71.4065 151.065 69.5049 159.759Z" fill="white"/>
<path opacity="0.25" d="M112.722 200.548C112.722 200.548 113.006 197.481 115.741 197.493C118.475 197.505 119.453 200.205 118.409 201.458C117.365 202.711 112.046 203.982 112.722 200.548Z" fill="white"/>
<path d="M143.83 562.883C143.643 564.932 143.42 566.203 143.227 566.498C142.381 567.902 123.758 570.999 117.268 570.999C112.735 570.999 109.861 570.312 109.306 568.945C109.306 568.969 136.761 568.053 143.83 562.883Z" fill="#BED8F0"/>
<path d="M204.537 557.985C204.395 558.409 204.169 558.8 203.873 559.136C200.553 562.462 180.595 563.016 177.818 562.178C177.063 561.956 177.359 561.106 178.21 559.937C178.21 559.937 192.898 561.805 204.537 557.985Z" fill="#BED8F0"/>
<path d="M229.819 561.046H214.123C214.123 561.046 210.972 554.551 214.123 550.629C217.274 546.706 219.683 532.554 219.683 532.554L225.279 520.998C225.279 520.998 234.184 509.779 235.759 507.424C237.335 505.068 239.285 514.858 247.356 518.799C255.427 522.739 259.75 534.06 259.75 534.06L229.819 561.046Z" fill="#392A59"/>
<path opacity="0.18" d="M109.51 100.745C106.492 98.6178 103.54 96.8465 101.916 92.0988C98.638 82.5492 92.3476 83.7241 86.6186 80.4525C85.2806 79.7203 84.083 78.7575 83.0811 77.6088C87.8139 80.1031 95.8369 82.3685 97.7204 83.3325C100.28 84.6399 102.882 90.9179 104.21 94.5871C104.953 96.7019 107.482 99.0998 109.51 100.745Z" fill="#6A8BCE"/>
<path opacity="0.24" d="M26.6308 58.3169C26.4919 58.0638 22.405 50.4543 27.8804 42.9231L29.4198 44.5679C29.4198 44.5679 24.4334 49.4421 26.6308 58.3169Z" fill="url(#paint28_linear)"/>
<path opacity="0.24" d="M59.3448 23.9083C50.374 22.0526 45.6774 27.21 45.6774 27.21L44.0293 25.7941C44.0293 25.7941 51.1528 20.5343 59.3387 23.9023L59.3448 23.9083Z" fill="url(#paint29_linear)"/>
<path d="M92.6135 196.602C92.8368 196.602 93.0179 196.421 93.0179 196.198C93.0179 195.975 92.8368 195.794 92.6135 195.794C92.3901 195.794 92.209 195.975 92.209 196.198C92.209 196.421 92.3901 196.602 92.6135 196.602Z" fill="white"/>
<path d="M429.639 561.046H229.819C229.819 538.964 240.831 535.632 246.722 529.523C248.238 527.977 249.623 526.309 250.864 524.535C252.518 522.17 253.778 519.553 254.595 516.786C255.379 514.437 257.347 513.256 257.347 508.954C257.347 504.652 261.277 505.032 260.185 494.428C260.032 492.842 260.05 491.244 260.239 489.662C261.332 479.51 268.395 466.707 278.193 458.049C289.602 447.975 298.253 406.102 301.797 393.54C305.34 380.978 312.808 386.081 315.561 390.792C318.313 395.504 330.9 419.056 343.879 424.532C356.859 430.009 364.338 444.951 364.731 457.639C364.795 459.04 365.045 460.425 365.473 461.76C367.284 467.611 372.023 474.497 377.046 480.914C377.049 480.928 377.049 480.942 377.046 480.956C382.177 487.505 387.58 493.566 390.387 497.519C390.798 498.121 391.154 498.627 391.444 499.109C396.164 506.942 404.03 514.816 415.826 521.872C427.622 528.927 429.639 561.046 429.639 561.046Z" fill="url(#paint30_linear)"/>
<path d="M27.6758 571.023H99.2486C99.2486 571.023 102.309 564.944 97.4375 561.907C92.5658 558.871 91.618 534.458 86.7885 530.963C81.959 527.469 77.6306 521.016 77.6306 521.016C77.6306 521.016 81.4218 503.887 67.531 521.956C53.6402 540.025 52.9037 549.448 48.5512 552.195C44.1986 554.943 35.9342 552.388 34.3646 557.985C32.795 563.582 27.6758 571.023 27.6758 571.023Z" fill="url(#paint31_linear)"/>
<path d="M308.545 385.641C308.545 385.641 301.446 408.536 302.236 421.863C303.027 435.19 299.478 454.567 297.516 459.218C295.554 463.869 281.735 469.985 277.823 478.311C273.912 486.638 279.417 463.604 286.498 455.886C293.58 448.168 299.906 392.214 308.545 385.641Z" fill="url(#paint32_linear)"/>
<path opacity="0.6" d="M276.526 480.1C276.526 480.1 268.014 496.452 266.469 502.73C264.923 509.008 250.725 525.896 250.725 525.896C250.725 525.896 250.785 525.402 250.9 524.528C252.554 522.164 253.814 519.547 254.63 516.78C255.415 514.431 257.383 513.25 257.383 508.948C257.383 504.646 261.313 505.026 260.221 494.422C260.067 492.836 260.086 491.238 260.275 489.656C265.865 485.143 276.526 480.1 276.526 480.1Z" fill="#3C2454"/>
<path opacity="0.6" d="M280.076 561.046C280.076 561.046 286.372 515.298 290.828 509.797C295.283 504.297 301.579 475.955 303.674 470.635C305.769 465.315 308.691 459.037 308.546 456.284C308.401 453.53 308.546 448.295 308.546 448.295C308.546 448.295 301.579 466.014 298.434 468.177C295.289 470.34 275.355 486.8 273.78 492.277C272.204 497.754 264.604 526.938 252.276 534.078C239.949 541.218 230.731 551.153 230.731 551.153L229.819 561.058L280.076 561.046Z" fill="#3C2454"/>
<path opacity="0.6" d="M429.638 561.046H298.959C298.959 561.046 307.61 516.606 309.97 511.641C312.331 506.677 313.906 465.177 317.818 459.224C321.73 453.271 321.229 435.214 320.178 431.551C319.128 427.888 313.622 416.248 313.622 411.862C313.622 407.476 311.811 392.817 311.811 392.817C311.811 392.817 330.429 421.2 338.035 425.201C345.642 429.202 359.013 442.071 360.849 450.807C361.289 452.916 362.95 456.868 365.491 461.779C368.948 468.395 372.813 474.792 377.064 480.932C377.066 480.946 377.066 480.96 377.064 480.974C381.064 486.839 385.525 492.377 390.405 497.537C390.816 498.139 391.172 498.645 391.461 499.127C396.182 506.96 404.048 514.834 415.844 521.89C427.64 528.945 429.638 561.046 429.638 561.046Z" fill="#3C2454"/>
<path opacity="0.33" d="M219.683 354.516C219.486 355.21 219.227 355.886 218.911 356.534C218.772 357.739 209.252 442.089 206.39 452.217C203.529 462.345 207.435 502.224 206.39 514.503C206.258 516.033 206.161 517.823 206.082 519.787C206.082 520.052 206.082 520.323 206.052 520.594C205.551 534.452 205.944 556.039 203.239 558.732C201.193 560.775 192.488 561.745 185.932 561.901C185.008 561.901 184.12 561.938 183.312 561.938C187.199 559.877 199.714 552.846 199.044 547.833C198.724 545.423 199.231 535.916 199.43 524.396C199.714 507.647 199.351 486.632 194.836 476.925C187.217 460.555 180.42 418.724 189.741 397.293C193.043 389.684 195.005 380.478 196.164 371.76C196.556 368.783 196.858 365.873 197.088 363.096C197.239 361.234 197.359 359.426 197.45 357.715C197.558 355.745 197.637 353.896 197.685 352.197C197.685 351.817 197.685 351.443 197.715 351.076C197.715 349.871 197.758 348.81 197.764 347.822C197.764 343.972 197.697 341.629 197.697 341.629L217.522 334.031C217.703 337.749 217.631 336.441 217.685 337.767C217.685 338.369 217.728 338.731 217.728 338.731C218.72 339.795 219.375 341.128 219.611 342.563C219.611 342.563 220.408 346.093 219.671 349.039C218.935 351.986 220.42 351.986 219.683 354.516Z" fill="#3C2454"/>
<path opacity="0.33" d="M179.852 375.393L163.975 416.664C163.335 413.868 162.768 411.241 162.255 408.885L179.852 375.393Z" fill="#3C2454"/>
<path opacity="0.33" d="M136.368 462.965C135.583 470.557 138.994 502.224 141.88 524.209C141.922 524.529 141.964 524.848 142.001 525.161C142.079 525.764 142.145 526.33 142.218 526.914C144.633 547.67 143.425 564.564 142.665 565.818C142.061 566.854 131.08 568.872 123.546 569.661C126.564 569.179 137.388 565.914 137.038 543.965C136.88 538.687 136.45 533.42 135.752 528.186C132.462 501.332 124.518 464.321 131.575 447.999C140.171 428.153 160.588 390.262 160.413 385.653C160.238 381.044 172.595 376.369 172.595 376.369L179.839 375.405V375.459C178.572 377.791 137.147 455.476 136.368 462.965Z" fill="#3C2454"/>
<path opacity="0.33" d="M219.683 354.516C219.485 355.21 219.227 355.885 218.91 356.534C217.19 360.071 212.077 366.777 196.164 371.723C189.119 373.827 181.901 375.299 174.594 376.122C173.924 376.206 173.26 376.284 172.596 376.351C147.845 379.098 128.527 375.374 117.516 371.657C130.845 371.904 129.161 368.645 137.039 365.897C144.917 363.15 156.103 365.132 166.233 364.277C176.363 363.421 196.417 355.51 206.257 351.022C210.124 349.332 213.628 346.911 216.574 343.894C217.528 342.928 218.352 341.842 219.025 340.665C219.325 341.268 219.528 341.915 219.629 342.581C219.629 342.581 220.426 346.111 219.689 349.057C218.953 352.004 220.42 351.986 219.683 354.516Z" fill="#3C2454"/>
<defs>
<linearGradient id="paint0_linear" x1="36452.7" y1="150997" x2="36452.7" y2="221032" gradientUnits="userSpaceOnUse">
<stop stop-color="#8DAAEE"/>
<stop offset="0.32" stop-color="#7393D6"/>
<stop offset="0.99" stop-color="#6A8BCE"/>
</linearGradient>
<linearGradient id="paint1_linear" x1="44022.7" y1="153867" x2="44022.7" y2="224103" gradientUnits="userSpaceOnUse">
<stop stop-color="#8DAAEE"/>
<stop offset="0.32" stop-color="#7393D6"/>
<stop offset="0.99" stop-color="#6A8BCE"/>
</linearGradient>
<linearGradient id="paint2_linear" x1="88.6778" y1="158.783" x2="175.753" y2="218.059" gradientUnits="userSpaceOnUse">
<stop stop-color="#8DAAEE"/>
<stop offset="0.77" stop-color="#33558C"/>
</linearGradient>
<linearGradient id="paint3_linear" x1="106.933" y1="359.933" x2="219.997" y2="359.933" gradientUnits="userSpaceOnUse">
<stop stop-color="white"/>
<stop offset="0.38" stop-color="#B4E4F4"/>
<stop offset="0.99" stop-color="#6A8BCE"/>
</linearGradient>
<linearGradient id="paint4_linear" x1="71.6837" y1="188.245" x2="123.225" y2="183.57" gradientUnits="userSpaceOnUse">
<stop stop-color="#A54D33"/>
<stop offset="0.87" stop-color="#7A2B18"/>
</linearGradient>
<linearGradient id="paint5_linear" x1="3878.98" y1="3959.36" x2="4031.33" y2="3980.49" gradientUnits="userSpaceOnUse">
<stop stop-color="#A54D33"/>
<stop offset="0.87" stop-color="#7A2B18"/>
</linearGradient>
<linearGradient id="paint6_linear" x1="33490.4" y1="47215.4" x2="45627.2" y2="47215.4" gradientUnits="userSpaceOnUse">
<stop stop-color="white"/>
<stop offset="0.38" stop-color="#B4E4F4"/>
<stop offset="0.99" stop-color="#6A8BCE"/>
</linearGradient>
<linearGradient id="paint7_linear" x1="31211.3" y1="11095.7" x2="39332.4" y2="11095.7" gradientUnits="userSpaceOnUse">
<stop stop-color="white"/>
<stop offset="0.38" stop-color="#B4E4F4"/>
<stop offset="0.99" stop-color="#6A8BCE"/>
</linearGradient>
<linearGradient id="paint8_linear" x1="30283.8" y1="11180.4" x2="30283.8" y2="10183.8" gradientUnits="userSpaceOnUse">
<stop stop-color="#8DAAEE"/>
<stop offset="0.77" stop-color="#33558C"/>
</linearGradient>
<linearGradient id="paint9_linear" x1="70984.7" y1="62145.7" x2="100972" y2="84026.1" gradientUnits="userSpaceOnUse">
<stop stop-color="white"/>
<stop offset="0.38" stop-color="#B4E4F4"/>
<stop offset="0.99" stop-color="#6A8BCE"/>
</linearGradient>
<linearGradient id="paint10_linear" x1="49533.9" y1="65399.9" x2="72147.4" y2="72966.5" gradientUnits="userSpaceOnUse">
<stop stop-color="white"/>
<stop offset="0.38" stop-color="#B4E4F4"/>
<stop offset="0.99" stop-color="#6A8BCE"/>
</linearGradient>
<linearGradient id="paint11_linear" x1="171.908" y1="226.709" x2="171.908" y2="351.004" gradientUnits="userSpaceOnUse">
<stop stop-color="#EF7771"/>
<stop offset="0.38" stop-color="#B4E4F4"/>
<stop offset="0.99" stop-color="#6A8BCE"/>
</linearGradient>
<linearGradient id="paint12_linear" x1="140.613" y1="226.709" x2="140.613" y2="351.004" gradientUnits="userSpaceOnUse">
<stop stop-color="#EF7771"/>
<stop offset="0.24" stop-color="#8DAAEE"/>
<stop offset="0.99" stop-color="#4669A5"/>
</linearGradient>
<linearGradient id="paint13_linear" x1="18.0338" y1="14.7279" x2="54.4486" y2="54.2943" gradientUnits="userSpaceOnUse">
<stop stop-color="#E7F6FB"/>
<stop offset="0.38" stop-color="#B4E4F4"/>
<stop offset="0.99" stop-color="#6A8BCE"/>
</linearGradient>
<linearGradient id="paint14_linear" x1="11681.5" y1="3046.04" x2="13362.1" y2="2904.34" gradientUnits="userSpaceOnUse">
<stop stop-color="#8DAAEE"/>
<stop offset="0.77" stop-color="#33558C"/>
</linearGradient>
<linearGradient id="paint15_linear" x1="10929.3" y1="5683.1" x2="12489.3" y2="5551.57" gradientUnits="userSpaceOnUse">
<stop stop-color="#8DAAEE"/>
<stop offset="0.77" stop-color="#33558C"/>
</linearGradient>
<linearGradient id="paint16_linear" x1="9671.88" y1="4768.9" x2="10790.6" y2="4674.58" gradientUnits="userSpaceOnUse">
<stop stop-color="#8DAAEE"/>
<stop offset="0.77" stop-color="#33558C"/>
</linearGradient>
<linearGradient id="paint17_linear" x1="18.2514" y1="47.2747" x2="29.5604" y2="46.3212" gradientUnits="userSpaceOnUse">
<stop stop-color="#EA6446"/>
<stop offset="1" stop-color="#91402C"/>
</linearGradient>
<linearGradient id="paint18_linear" x1="8885.29" y1="1920.86" x2="9088.87" y2="2402.84" gradientUnits="userSpaceOnUse">
<stop stop-color="#EA6446"/>
<stop offset="1" stop-color="#91402C"/>
</linearGradient>
<linearGradient id="paint19_linear" x1="5.85789" y1="4.90451" x2="19.4001" y2="19.0099" gradientUnits="userSpaceOnUse">
<stop stop-color="#EA6446"/>
<stop offset="0.34" stop-color="#91402C"/>
</linearGradient>
<linearGradient id="paint20_linear" x1="12191.8" y1="7133.35" x2="13793.8" y2="6693.23" gradientUnits="userSpaceOnUse">
<stop stop-color="#EA6446"/>
<stop offset="1" stop-color="#91402C"/>
</linearGradient>
<linearGradient id="paint21_linear" x1="27426.5" y1="15744.7" x2="28277.1" y2="20574.3" gradientUnits="userSpaceOnUse">
<stop stop-color="white"/>
<stop offset="1" stop-color="#B4E4F4"/>
</linearGradient>
<linearGradient id="paint22_linear" x1="48846.6" y1="52609.9" x2="57957.8" y2="51766.2" gradientUnits="userSpaceOnUse">
<stop stop-color="white"/>
<stop offset="0.38" stop-color="#B4E4F4"/>
<stop offset="0.99" stop-color="#6A8BCE"/>
</linearGradient>
<linearGradient id="paint23_linear" x1="30548.5" y1="32486" x2="34154.2" y2="32152.8" gradientUnits="userSpaceOnUse">
<stop stop-color="white"/>
<stop offset="0.38" stop-color="#B4E4F4"/>
<stop offset="0.99" stop-color="#6A8BCE"/>
</linearGradient>
<linearGradient id="paint24_linear" x1="33727.1" y1="69526.7" x2="41202.5" y2="71075.8" gradientUnits="userSpaceOnUse">
<stop stop-color="white"/>
<stop offset="0.38" stop-color="#B4E4F4"/>
<stop offset="0.99" stop-color="#6A8BCE"/>
</linearGradient>
<linearGradient id="paint25_linear" x1="26946.8" y1="40840" x2="32187.6" y2="41136.7" gradientUnits="userSpaceOnUse">
<stop stop-color="white"/>
<stop offset="0.38" stop-color="#B4E4F4"/>
<stop offset="0.99" stop-color="#6A8BCE"/>
</linearGradient>
<linearGradient id="paint26_linear" x1="14543" y1="8827.63" x2="15584" y2="9484.06" gradientUnits="userSpaceOnUse">
<stop stop-color="white"/>
<stop offset="0.38" stop-color="#B4E4F4"/>
<stop offset="0.99" stop-color="#6A8BCE"/>
</linearGradient>
<linearGradient id="paint27_linear" x1="19338.7" y1="15086.1" x2="21994.9" y2="15368" gradientUnits="userSpaceOnUse">
<stop stop-color="white"/>
<stop offset="0.38" stop-color="#B4E4F4"/>
<stop offset="0.99" stop-color="#6A8BCE"/>
</linearGradient>
<linearGradient id="paint28_linear" x1="1545.59" y1="3459.88" x2="1582.03" y2="3459.88" gradientUnits="userSpaceOnUse">
<stop stop-color="#E7F6FB"/>
<stop offset="0.38" stop-color="#B4E4F4"/>
<stop offset="0.99" stop-color="#6A8BCE"/>
</linearGradient>
<linearGradient id="paint29_linear" x1="5892.09" y1="832.661" x2="6283.24" y2="832.661" gradientUnits="userSpaceOnUse">
<stop stop-color="#E7F6FB"/>
<stop offset="0.38" stop-color="#B4E4F4"/>
<stop offset="0.99" stop-color="#6A8BCE"/>
</linearGradient>
<linearGradient id="paint30_linear" x1="329.729" y1="385.641" x2="329.729" y2="561.046" gradientUnits="userSpaceOnUse">
<stop stop-color="#6594DD"/>
<stop offset="0.41" stop-color="#5D80C5"/>
<stop offset="1" stop-color="#403067"/>
</linearGradient>
<linearGradient id="paint31_linear" x1="29942.9" y1="57527.8" x2="29942.9" y2="62986.9" gradientUnits="userSpaceOnUse">
<stop stop-color="#6594DD"/>
<stop offset="0.41" stop-color="#5D80C5"/>
<stop offset="1" stop-color="#403067"/>
</linearGradient>
<linearGradient id="paint32_linear" x1="25611.3" y1="74219.4" x2="25611.3" y2="89028.4" gradientUnits="userSpaceOnUse">
<stop stop-color="#6594DD"/>
<stop offset="0.41" stop-color="#5D80C5"/>
<stop offset="1" stop-color="#403067"/>
</linearGradient>
</defs>
</svg>
