<svg width="24" height="20" viewBox="0 0 24 20" fill="none" xmlns="http://www.w3.org/2000/svg">
<path d="M23.9511 2.77705C23.0604 3.17102 22.1159 3.42977 21.1487 3.54472C22.1681 2.93505 22.9311 1.97556 23.2954 0.845048C22.3387 1.41438 21.2899 1.81338 20.1967 2.02921C19.4624 1.24356 18.4892 0.722505 17.4282 0.547063C16.3672 0.371622 15.278 0.551621 14.3299 1.05908C13.3818 1.56653 12.6279 2.37301 12.1854 3.35314C11.7429 4.33327 11.6366 5.43213 11.8831 6.47888C9.94303 6.38165 8.04512 5.87749 6.31257 4.99916C4.58001 4.12082 3.05155 2.88794 1.8264 1.38055C1.39274 2.12541 1.16485 2.97215 1.16607 3.83405C1.16607 5.52572 2.02707 7.02022 3.33607 7.89522C2.56141 7.87083 1.8038 7.66163 1.1264 7.28505V7.34572C1.12663 8.47237 1.5165 9.56427 2.22989 10.4363C2.94328 11.3083 3.93629 11.9068 5.04057 12.1302C4.32145 12.3251 3.56742 12.3538 2.83557 12.2142C3.14691 13.184 3.75374 14.0321 4.57109 14.6398C5.38844 15.2476 6.37538 15.5845 7.39373 15.6034C6.38163 16.3983 5.22277 16.9859 3.98343 17.3326C2.74408 17.6793 1.44855 17.7783 0.170898 17.6241C2.40121 19.0584 4.99751 19.8199 7.64923 19.8174C16.6244 19.8174 21.5326 12.3822 21.5326 5.93405C21.5326 5.72405 21.5267 5.51172 21.5174 5.30405C22.4727 4.61358 23.2973 3.75824 23.9522 2.77821L23.9511 2.77705Z" fill="white"/>
</svg>
